<svg xmlns="http://www.w3.org/2000/svg" xmlns:xlink="http://www.w3.org/1999/xlink" viewBox="0 0 478 500"><defs><style>.a{fill:none;}.b{clip-path:url(#d);}.c{clip-path:url(#a);}.d{fill:#f8fbfc;}.e{fill:#fff;}</style><clipPath id="a"><rect class="a" width="481.08" height="499.97"/></clipPath><clipPath id="d"><rect width="478" height="500"/></clipPath></defs><g id="c" class="b"><rect class="e" width="478" height="500"/><g transform="translate(-21 -13)"><g class="c" transform="translate(20.768 12.998)"><g transform="translate(-20.768 -12.998)"><path class="d" d="M94.448,85.793l-2.382-1.375a.465.465,0,0,1,.057-.834l1.214-.494a.466.466,0,0,0,.057-.834l-.786-.454a.465.465,0,0,0-.408-.027l-2.534,1.032a.462.462,0,0,1-.408-.028l-2.668-1.54a.465.465,0,0,1,.057-.833l5.09-2.074a.466.466,0,0,0,.057-.834l-1.305-.753a.465.465,0,0,0-.408-.028L83.57,79.37a.462.462,0,0,1-.408-.028l-7.738-4.467,7.738-4.467a.462.462,0,0,1,.408-.028l6.511,2.653a.465.465,0,0,0,.408-.027l1.305-.754a.465.465,0,0,0-.057-.833l-5.09-2.075a.465.465,0,0,1-.057-.833l2.668-1.54a.465.465,0,0,1,.408-.028L92.2,67.976a.465.465,0,0,0,.408-.028l.786-.454a.465.465,0,0,0-.057-.833l-1.214-.5a.465.465,0,0,1-.057-.834l2.382-1.375a.465.465,0,0,0,.17-.635l-.213-.369-.375-.65a.466.466,0,0,0-.635-.17l-2.382,1.375a.465.465,0,0,1-.694-.466l.179-1.3a.465.465,0,0,0-.693-.466l-.786.454a.462.462,0,0,0-.228.339l-.373,2.712a.467.467,0,0,1-.228.339l-2.668,1.54a.465.465,0,0,1-.693-.466l.748-5.445a.465.465,0,0,0-.693-.466l-1.305.754a.463.463,0,0,0-.228.339l-.958,6.965a.462.462,0,0,1-.228.34l-7.738,4.467V64.215a.467.467,0,0,1,.18-.368l5.554-4.312a.467.467,0,0,0,.18-.367V57.661a.465.465,0,0,0-.751-.367l-4.341,3.37a.465.465,0,0,1-.75-.367v-3.08a.464.464,0,0,1,.18-.368l2.162-1.678a.466.466,0,0,0,.179-.368V53.9a.465.465,0,0,0-.75-.367l-1.036.8a.465.465,0,0,1-.75-.367V51.215a.465.465,0,0,0-.465-.465H72.843a.465.465,0,0,0-.465.465v2.751a.465.465,0,0,1-.75.367l-1.036-.8a.465.465,0,0,0-.75.367V54.8a.466.466,0,0,0,.179.368l2.162,1.678a.464.464,0,0,1,.18.368V60.3a.465.465,0,0,1-.75.367l-4.341-3.37a.465.465,0,0,0-.751.367v1.507a.467.467,0,0,0,.18.367l5.554,4.312a.467.467,0,0,1,.18.368v8.934L64.7,68.682a.462.462,0,0,1-.228-.34l-.958-6.965a.463.463,0,0,0-.228-.339l-1.305-.754a.465.465,0,0,0-.693.466l.748,5.445a.465.465,0,0,1-.693.466l-2.668-1.54a.467.467,0,0,1-.228-.339l-.373-2.712a.462.462,0,0,0-.228-.339l-.786-.454a.465.465,0,0,0-.693.466l.179,1.3a.465.465,0,0,1-.694.466l-2.382-1.375a.466.466,0,0,0-.635.17l-.375.65-.213.369a.465.465,0,0,0,.17.635L54.8,65.332a.466.466,0,0,1-.057.834l-1.214.5a.465.465,0,0,0-.057.833l.786.454a.465.465,0,0,0,.408.028L57.2,66.943a.465.465,0,0,1,.408.028l2.668,1.54a.465.465,0,0,1-.057.833l-5.09,2.075a.465.465,0,0,0-.057.833l1.305.754a.465.465,0,0,0,.408.027l6.511-2.653a.462.462,0,0,1,.408.028l7.738,4.467L63.7,79.342a.462.462,0,0,1-.408.028l-6.511-2.653a.465.465,0,0,0-.408.028l-1.305.753a.466.466,0,0,0,.057.834l5.09,2.074a.465.465,0,0,1,.057.833L57.6,82.779a.462.462,0,0,1-.408.028l-2.534-1.032a.465.465,0,0,0-.408.027l-.786.454a.466.466,0,0,0,.057.834l1.214.494a.466.466,0,0,1,.057.834l-2.382,1.375a.466.466,0,0,0-.17.635l.375.65.213.369a.466.466,0,0,0,.635.17l2.382-1.375a.466.466,0,0,1,.694.466l-.179,1.3a.465.465,0,0,0,.693.466l.786-.453a.464.464,0,0,0,.228-.34l.373-2.711a.467.467,0,0,1,.228-.34l2.668-1.54a.465.465,0,0,1,.693.466L61.285,89a.465.465,0,0,0,.693.466l1.305-.753a.464.464,0,0,0,.228-.34l.958-6.965a.462.462,0,0,1,.228-.34L72.435,76.6v8.935a.467.467,0,0,1-.18.367L66.7,90.215a.467.467,0,0,0-.18.367v1.507a.465.465,0,0,0,.751.367l4.341-3.37a.465.465,0,0,1,.75.367v3.081a.464.464,0,0,1-.18.367l-2.162,1.678a.466.466,0,0,0-.179.368v.907a.464.464,0,0,0,.75.367l1.036-.8a.465.465,0,0,1,.75.368v2.75a.465.465,0,0,0,.465.465h1.176a.465.465,0,0,0,.465-.465v-2.75a.465.465,0,0,1,.75-.368l1.036.8a.464.464,0,0,0,.75-.367v-.907a.466.466,0,0,0-.179-.368L74.679,92.9a.464.464,0,0,1-.18-.367V89.453a.465.465,0,0,1,.75-.367l4.341,3.37a.465.465,0,0,0,.751-.367V90.582a.467.467,0,0,0-.18-.367L74.607,85.9a.467.467,0,0,1-.18-.367V76.6l7.738,4.467a.462.462,0,0,1,.228.34l.958,6.965a.464.464,0,0,0,.228.34l1.305.753A.465.465,0,0,0,85.577,89l-.748-5.445a.465.465,0,0,1,.693-.466l2.668,1.54a.467.467,0,0,1,.228.34l.373,2.711a.464.464,0,0,0,.228.34l.786.453a.465.465,0,0,0,.693-.466l-.179-1.3a.466.466,0,0,1,.694-.466l2.382,1.375a.466.466,0,0,0,.635-.17l.213-.369.375-.65A.466.466,0,0,0,94.448,85.793Z"/><path class="d" d="M151.976,175.862l-2.382-1.375a.465.465,0,0,1,.057-.833l1.215-.5a.466.466,0,0,0,.057-.834l-.786-.454a.468.468,0,0,0-.408-.028l-2.535,1.034a.469.469,0,0,1-.408-.028l-2.667-1.541a.464.464,0,0,1,.057-.833l5.089-2.074a.466.466,0,0,0,.057-.834l-1.305-.753a.465.465,0,0,0-.408-.028L141.1,169.44a.469.469,0,0,1-.408-.028l-7.738-4.468,7.738-4.467a.465.465,0,0,1,.408-.028l6.511,2.653a.465.465,0,0,0,.408-.027l1.305-.754a.465.465,0,0,0-.057-.833l-5.089-2.075a.464.464,0,0,1-.057-.833l2.667-1.54a.465.465,0,0,1,.408-.028l2.535,1.033a.465.465,0,0,0,.408-.028l.786-.454a.465.465,0,0,0-.057-.833l-1.215-.495a.466.466,0,0,1-.057-.834l2.382-1.375a.465.465,0,0,0,.171-.635l-.214-.369-.374-.649a.466.466,0,0,0-.636-.171l-2.382,1.375a.465.465,0,0,1-.693-.466l.179-1.3a.466.466,0,0,0-.694-.466l-.785.454a.466.466,0,0,0-.229.339l-.372,2.712a.466.466,0,0,1-.229.339l-2.667,1.54a.466.466,0,0,1-.694-.466l.749-5.445a.465.465,0,0,0-.693-.466l-1.3.753a.468.468,0,0,0-.229.34l-.957,6.966a.465.465,0,0,1-.228.339l-7.738,4.467v-8.935a.464.464,0,0,1,.18-.367l5.554-4.312a.464.464,0,0,0,.179-.367V147.73a.465.465,0,0,0-.75-.367l-4.341,3.37a.464.464,0,0,1-.75-.367v-3.08a.466.466,0,0,1,.179-.368l2.162-1.678a.464.464,0,0,0,.18-.367v-.908a.465.465,0,0,0-.75-.367l-1.036.8a.465.465,0,0,1-.75-.367v-2.751a.465.465,0,0,0-.465-.465h-1.176a.465.465,0,0,0-.465.465v2.751a.466.466,0,0,1-.751.367l-1.035-.8a.465.465,0,0,0-.751.367v.908a.467.467,0,0,0,.18.367l2.162,1.678a.467.467,0,0,1,.18.368v3.08a.465.465,0,0,1-.751.367l-4.341-3.37a.465.465,0,0,0-.75.367v1.507a.462.462,0,0,0,.18.367l5.553,4.312a.464.464,0,0,1,.18.367v8.935l-7.738-4.467a.467.467,0,0,1-.228-.339l-.957-6.966a.469.469,0,0,0-.228-.34l-1.3-.753a.465.465,0,0,0-.693.466l.748,5.445a.465.465,0,0,1-.693.466l-2.668-1.54a.465.465,0,0,1-.228-.339l-.373-2.712a.467.467,0,0,0-.228-.339l-.786-.454a.465.465,0,0,0-.693.466l.178,1.3a.465.465,0,0,1-.693.466L111,152.2a.465.465,0,0,0-.635.171l-.375.649-.213.369a.465.465,0,0,0,.17.635l2.382,1.375a.466.466,0,0,1-.057.834l-1.214.495a.465.465,0,0,0-.057.833l.785.454a.465.465,0,0,0,.408.028l2.535-1.033a.465.465,0,0,1,.408.028l2.668,1.54a.465.465,0,0,1-.057.833l-5.09,2.075a.465.465,0,0,0-.057.833l1.305.754a.465.465,0,0,0,.408.027l6.511-2.653a.465.465,0,0,1,.408.028l7.738,4.467-7.738,4.468a.468.468,0,0,1-.408.028l-6.511-2.654a.465.465,0,0,0-.408.028l-1.305.753a.466.466,0,0,0,.057.834l5.09,2.074a.465.465,0,0,1,.057.833l-2.668,1.541a.468.468,0,0,1-.408.028l-2.535-1.034a.469.469,0,0,0-.408.028l-.785.454a.465.465,0,0,0,.057.834l1.214.5a.465.465,0,0,1,.057.833l-2.382,1.375a.466.466,0,0,0-.17.636l.375.649.213.369a.465.465,0,0,0,.635.17l2.382-1.375a.465.465,0,0,1,.693.466l-.178,1.3a.465.465,0,0,0,.693.466l.786-.454a.465.465,0,0,0,.228-.339l.373-2.711a.465.465,0,0,1,.228-.34l2.668-1.54a.465.465,0,0,1,.693.466l-.748,5.445a.465.465,0,0,0,.693.466l1.3-.753a.467.467,0,0,0,.228-.34l.957-6.965a.467.467,0,0,1,.228-.34l7.738-4.467V175.6a.464.464,0,0,1-.18.367l-5.553,4.312a.464.464,0,0,0-.18.367v1.507a.465.465,0,0,0,.75.367l4.341-3.37a.465.465,0,0,1,.751.367V182.6a.467.467,0,0,1-.18.367l-2.162,1.678a.467.467,0,0,0-.18.368v.907a.466.466,0,0,0,.751.368l1.035-.805a.466.466,0,0,1,.751.368v2.75a.465.465,0,0,0,.465.465h1.176a.465.465,0,0,0,.465-.465v-2.75a.465.465,0,0,1,.75-.368l1.036.805a.465.465,0,0,0,.75-.368v-.907a.464.464,0,0,0-.18-.368l-2.162-1.678a.466.466,0,0,1-.179-.367v-3.081a.465.465,0,0,1,.75-.367l4.341,3.37a.464.464,0,0,0,.75-.367v-1.507a.466.466,0,0,0-.179-.367l-5.554-4.312a.464.464,0,0,1-.18-.367V166.67l7.738,4.467a.465.465,0,0,1,.228.34l.957,6.965a.466.466,0,0,0,.229.34l1.3.753a.465.465,0,0,0,.693-.466l-.749-5.445a.466.466,0,0,1,.694-.466l2.667,1.54a.466.466,0,0,1,.229.34l.372,2.711a.464.464,0,0,0,.229.339l.785.454a.466.466,0,0,0,.694-.466l-.179-1.3a.465.465,0,0,1,.693-.466l2.382,1.375a.466.466,0,0,0,.636-.17l.213-.369.375-.649A.466.466,0,0,0,151.976,175.862Z"/><path class="d" d="M490.616,72.166l-2.382-1.375a.466.466,0,0,1,.057-.834l1.214-.5a.465.465,0,0,0,.057-.833l-.786-.454a.468.468,0,0,0-.408-.028l-2.534,1.033a.462.462,0,0,1-.408-.028l-2.668-1.54a.465.465,0,0,1,.057-.833L487.9,64.7a.465.465,0,0,0,.057-.833l-1.3-.753a.462.462,0,0,0-.408-.028l-6.511,2.653a.465.465,0,0,1-.408-.027l-7.738-4.468,7.738-4.467a.465.465,0,0,1,.408-.028l6.511,2.653a.462.462,0,0,0,.408-.028l1.3-.753a.465.465,0,0,0-.057-.833l-5.09-2.075a.465.465,0,0,1-.057-.833l2.668-1.54a.462.462,0,0,1,.408-.028l2.534,1.033a.465.465,0,0,0,.408-.028l.786-.454a.465.465,0,0,0-.057-.833l-1.214-.495a.466.466,0,0,1-.057-.834l2.382-1.375a.465.465,0,0,0,.17-.635l-.213-.369-.375-.65a.465.465,0,0,0-.635-.17l-2.382,1.375a.465.465,0,0,1-.693-.466l.178-1.3a.465.465,0,0,0-.693-.466l-.786.454a.464.464,0,0,0-.228.339l-.373,2.711a.465.465,0,0,1-.228.34l-2.668,1.54a.465.465,0,0,1-.693-.466l.748-5.445a.465.465,0,0,0-.693-.466l-1.3.753a.466.466,0,0,0-.228.34l-.957,6.965a.466.466,0,0,1-.229.34L470.6,59.522V50.587a.466.466,0,0,1,.179-.367l5.554-4.312a.462.462,0,0,0,.18-.367V44.034a.465.465,0,0,0-.75-.367l-4.342,3.37a.465.465,0,0,1-.75-.367V43.59a.464.464,0,0,1,.18-.368l2.162-1.678a.467.467,0,0,0,.18-.368v-.907a.465.465,0,0,0-.751-.367l-1.035.8a.466.466,0,0,1-.751-.368v-2.75a.465.465,0,0,0-.465-.465h-1.176a.465.465,0,0,0-.465.465v2.75a.465.465,0,0,1-.75.368l-1.036-.8a.464.464,0,0,0-.75.367v.907a.464.464,0,0,0,.18.368l2.161,1.678a.464.464,0,0,1,.18.368v3.08a.465.465,0,0,1-.75.367l-4.341-3.37a.465.465,0,0,0-.751.367v1.507a.465.465,0,0,0,.18.367l5.554,4.312a.467.467,0,0,1,.18.367v8.935l-7.738-4.467a.465.465,0,0,1-.228-.34l-.958-6.965a.464.464,0,0,0-.228-.34l-1.3-.753a.465.465,0,0,0-.693.466l.748,5.445a.465.465,0,0,1-.693.466l-2.668-1.54a.467.467,0,0,1-.228-.34l-.372-2.711a.466.466,0,0,0-.229-.339l-.785-.454a.466.466,0,0,0-.694.466l.179,1.3a.466.466,0,0,1-.694.466l-2.381-1.375a.467.467,0,0,0-.636.17l-.375.65-.213.369a.465.465,0,0,0,.171.635l2.381,1.375a.465.465,0,0,1-.057.834l-1.214.495a.465.465,0,0,0-.057.833l.786.454a.465.465,0,0,0,.408.028l2.534-1.033a.462.462,0,0,1,.408.028l2.668,1.54a.465.465,0,0,1-.057.833l-5.089,2.075a.464.464,0,0,0-.057.833l1.3.753a.462.462,0,0,0,.408.028l6.511-2.653a.467.467,0,0,1,.409.028l7.737,4.467-7.737,4.468a.467.467,0,0,1-.409.027l-6.511-2.653a.462.462,0,0,0-.408.028l-1.3.753a.464.464,0,0,0,.057.833l5.089,2.075a.465.465,0,0,1,.057.833l-2.668,1.54a.462.462,0,0,1-.408.028l-2.534-1.033a.468.468,0,0,0-.408.028l-.786.454a.465.465,0,0,0,.057.833l1.214.5a.465.465,0,0,1,.057.834l-2.381,1.375a.465.465,0,0,0-.171.635l.375.65.213.369a.467.467,0,0,0,.636.17l2.381-1.375a.466.466,0,0,1,.694.466l-.179,1.3a.466.466,0,0,0,.694.466l.785-.454a.464.464,0,0,0,.229-.339l.372-2.711a.467.467,0,0,1,.228-.34l2.668-1.54a.465.465,0,0,1,.693.466l-.748,5.445a.465.465,0,0,0,.693.466l1.3-.753a.462.462,0,0,0,.228-.34l.958-6.965a.465.465,0,0,1,.228-.34l7.738-4.467v8.935a.467.467,0,0,1-.18.367l-5.554,4.312a.467.467,0,0,0-.18.367v1.507a.465.465,0,0,0,.751.367l4.341-3.37a.465.465,0,0,1,.75.367v3.081a.464.464,0,0,1-.18.367l-2.161,1.678a.464.464,0,0,0-.18.368v.907a.464.464,0,0,0,.75.367l1.036-.8a.465.465,0,0,1,.75.368v2.75a.465.465,0,0,0,.465.465h1.176a.465.465,0,0,0,.465-.465v-2.75a.466.466,0,0,1,.751-.368l1.035.8a.465.465,0,0,0,.751-.367V81.32a.467.467,0,0,0-.18-.368l-2.162-1.678a.464.464,0,0,1-.18-.367V75.826a.465.465,0,0,1,.75-.367l4.342,3.37a.465.465,0,0,0,.75-.367V76.955a.464.464,0,0,0-.18-.367l-5.554-4.312a.466.466,0,0,1-.179-.367V62.974l7.737,4.467a.466.466,0,0,1,.229.34l.957,6.965a.464.464,0,0,0,.228.34l1.3.753a.465.465,0,0,0,.693-.466L481,69.928a.465.465,0,0,1,.693-.466L484.358,71a.465.465,0,0,1,.228.34l.373,2.711a.463.463,0,0,0,.228.339l.786.454a.465.465,0,0,0,.693-.466l-.178-1.3a.465.465,0,0,1,.693-.466l2.382,1.375a.465.465,0,0,0,.635-.17l.213-.369.375-.65A.465.465,0,0,0,490.616,72.166Z"/><path class="d" d="M448.117,211.429l-2.382-1.375a.465.465,0,0,1,.057-.833l1.215-.495a.466.466,0,0,0,.057-.834l-.786-.453a.462.462,0,0,0-.408-.028l-2.535,1.033a.465.465,0,0,1-.408-.028l-2.667-1.54a.465.465,0,0,1,.057-.834l5.089-2.074a.465.465,0,0,0,.057-.834l-1.305-.753a.465.465,0,0,0-.408-.028l-6.511,2.654a.465.465,0,0,1-.408-.028l-7.738-4.468,7.738-4.467a.465.465,0,0,1,.408-.028l6.511,2.654a.465.465,0,0,0,.408-.028l1.305-.754a.465.465,0,0,0-.057-.833l-5.089-2.074a.465.465,0,0,1-.057-.834l2.667-1.54a.465.465,0,0,1,.408-.028l2.535,1.033a.465.465,0,0,0,.408-.028l.786-.454a.465.465,0,0,0-.057-.833l-1.215-.495a.466.466,0,0,1-.057-.834l2.382-1.375a.465.465,0,0,0,.171-.635l-.214-.369-.374-.649a.466.466,0,0,0-.636-.171l-2.382,1.376a.465.465,0,0,1-.693-.467l.179-1.3a.466.466,0,0,0-.694-.466l-.785.454a.466.466,0,0,0-.229.339l-.372,2.712a.466.466,0,0,1-.229.339l-2.667,1.54a.465.465,0,0,1-.694-.466l.749-5.445a.465.465,0,0,0-.693-.466l-1.3.754a.464.464,0,0,0-.229.339l-.957,6.966a.464.464,0,0,1-.228.339l-7.738,4.467v-8.934a.464.464,0,0,1,.18-.368l5.554-4.312a.464.464,0,0,0,.179-.367V183.3a.465.465,0,0,0-.75-.367l-4.341,3.371a.465.465,0,0,1-.75-.368v-3.08a.468.468,0,0,1,.179-.368l2.162-1.678a.464.464,0,0,0,.18-.367v-.908a.465.465,0,0,0-.75-.367l-1.036.8a.465.465,0,0,1-.75-.367v-2.751a.466.466,0,0,0-.465-.465h-1.176a.465.465,0,0,0-.465.465V179.6a.465.465,0,0,1-.751.367l-1.035-.8a.465.465,0,0,0-.751.367v.908a.467.467,0,0,0,.18.367l2.162,1.678a.469.469,0,0,1,.18.368v3.08a.466.466,0,0,1-.751.368l-4.341-3.371a.465.465,0,0,0-.75.367V184.8a.462.462,0,0,0,.18.367l5.553,4.312a.464.464,0,0,1,.18.368v8.934l-7.738-4.467a.467.467,0,0,1-.228-.339l-.957-6.966a.465.465,0,0,0-.228-.339l-1.3-.754a.465.465,0,0,0-.693.466l.748,5.445a.464.464,0,0,1-.693.466l-2.668-1.54a.464.464,0,0,1-.228-.339l-.373-2.712a.467.467,0,0,0-.228-.339l-.786-.454a.465.465,0,0,0-.693.466l.178,1.3a.465.465,0,0,1-.693.467l-2.382-1.376a.465.465,0,0,0-.635.171l-.375.649-.213.369a.465.465,0,0,0,.17.635l2.382,1.375a.466.466,0,0,1-.057.834l-1.214.495a.465.465,0,0,0-.057.833l.785.454a.465.465,0,0,0,.408.028l2.535-1.033a.465.465,0,0,1,.408.028l2.668,1.54a.466.466,0,0,1-.057.834l-5.09,2.074a.465.465,0,0,0-.057.833l1.3.754a.465.465,0,0,0,.408.028l6.511-2.654a.465.465,0,0,1,.408.028l7.738,4.467-7.738,4.468a.465.465,0,0,1-.408.028l-6.511-2.654a.465.465,0,0,0-.408.028l-1.3.753a.466.466,0,0,0,.057.834l5.09,2.074a.466.466,0,0,1,.057.834l-2.668,1.54a.465.465,0,0,1-.408.028l-2.535-1.033a.462.462,0,0,0-.408.028l-.785.453a.465.465,0,0,0,.057.834l1.214.495a.465.465,0,0,1,.057.833l-2.382,1.375a.466.466,0,0,0-.17.636l.375.649.213.369a.465.465,0,0,0,.635.17l2.382-1.375a.465.465,0,0,1,.693.466l-.178,1.3a.465.465,0,0,0,.693.466l.786-.453a.469.469,0,0,0,.228-.34l.373-2.711a.466.466,0,0,1,.228-.34l2.668-1.54a.465.465,0,0,1,.693.466l-.748,5.445a.464.464,0,0,0,.693.466l1.3-.753a.467.467,0,0,0,.228-.339l.957-6.966a.469.469,0,0,1,.228-.34l7.738-4.467v8.935a.462.462,0,0,1-.18.367l-5.553,4.312a.464.464,0,0,0-.18.367v1.507a.465.465,0,0,0,.75.368l4.341-3.371a.466.466,0,0,1,.751.368v3.08a.465.465,0,0,1-.18.367l-2.162,1.679a.465.465,0,0,0-.18.367v.907a.466.466,0,0,0,.751.368l1.035-.805a.466.466,0,0,1,.751.368v2.75a.465.465,0,0,0,.465.465h1.176a.465.465,0,0,0,.465-.465v-2.75a.465.465,0,0,1,.75-.368l1.036.805a.465.465,0,0,0,.75-.368v-.907a.462.462,0,0,0-.18-.367l-2.162-1.679a.464.464,0,0,1-.179-.367v-3.08a.465.465,0,0,1,.75-.368l4.341,3.371a.465.465,0,0,0,.75-.368v-1.507a.466.466,0,0,0-.179-.367l-5.554-4.312a.462.462,0,0,1-.18-.367v-8.935l7.738,4.467a.466.466,0,0,1,.228.34l.957,6.966a.466.466,0,0,0,.229.339l1.3.753a.465.465,0,0,0,.693-.466l-.749-5.445a.466.466,0,0,1,.694-.466l2.667,1.54a.468.468,0,0,1,.229.34l.372,2.711a.468.468,0,0,0,.229.34l.785.453a.466.466,0,0,0,.694-.466l-.179-1.3a.465.465,0,0,1,.693-.466l2.382,1.375a.466.466,0,0,0,.636-.17l.213-.369.375-.649A.466.466,0,0,0,448.117,211.429Z" transform="translate(-22 -14)"/><path class="d" d="M313.275,48.041l-2.382-1.375a.466.466,0,0,1,.057-.834l1.214-.495a.464.464,0,0,0,.057-.833l-.785-.454a.469.469,0,0,0-.408-.028l-2.535,1.033a.462.462,0,0,1-.408-.028l-2.668-1.54a.465.465,0,0,1,.057-.833l5.09-2.075a.465.465,0,0,0,.057-.833l-1.3-.753a.462.462,0,0,0-.408-.028L302.4,41.618a.465.465,0,0,1-.408-.027l-7.738-4.468,7.738-4.467a.465.465,0,0,1,.408-.028l6.511,2.653a.462.462,0,0,0,.408-.028l1.3-.753a.465.465,0,0,0-.057-.833l-5.09-2.075a.465.465,0,0,1-.057-.833l2.668-1.54a.462.462,0,0,1,.408-.028l2.535,1.033a.465.465,0,0,0,.408-.028l.785-.454a.464.464,0,0,0-.057-.833l-1.214-.5a.466.466,0,0,1-.057-.834l2.382-1.375a.465.465,0,0,0,.17-.635l-.213-.369-.375-.65a.465.465,0,0,0-.635-.17l-2.382,1.375a.465.465,0,0,1-.693-.466l.178-1.3a.465.465,0,0,0-.693-.466l-.786.454a.467.467,0,0,0-.228.339l-.373,2.711a.462.462,0,0,1-.228.34l-2.668,1.54a.465.465,0,0,1-.693-.466L304.4,23a.465.465,0,0,0-.693-.466l-1.3.753a.469.469,0,0,0-.228.34l-.957,6.965a.467.467,0,0,1-.228.34L293.255,35.4V26.462a.464.464,0,0,1,.18-.367l5.553-4.312a.462.462,0,0,0,.18-.367V19.909a.465.465,0,0,0-.75-.367l-4.341,3.37a.465.465,0,0,1-.751-.367v-3.08a.467.467,0,0,1,.18-.368l2.162-1.678a.467.467,0,0,0,.18-.368v-.907a.465.465,0,0,0-.751-.367l-1.035.8a.466.466,0,0,1-.751-.368v-2.75a.465.465,0,0,0-.465-.465H291.67a.465.465,0,0,0-.465.465v2.75a.465.465,0,0,1-.75.368l-1.036-.8a.465.465,0,0,0-.75.367v.907a.464.464,0,0,0,.18.368l2.162,1.678a.466.466,0,0,1,.179.368v3.08a.464.464,0,0,1-.75.367l-4.341-3.37a.465.465,0,0,0-.75.367v1.507a.464.464,0,0,0,.179.367l5.554,4.312a.464.464,0,0,1,.18.367V35.4l-7.738-4.467a.465.465,0,0,1-.228-.34l-.957-6.965a.468.468,0,0,0-.229-.34l-1.3-.753a.465.465,0,0,0-.693.466l.749,5.445a.466.466,0,0,1-.694.466l-2.667-1.54a.466.466,0,0,1-.229-.34l-.372-2.711a.467.467,0,0,0-.228-.339l-.786-.454a.466.466,0,0,0-.694.466l.179,1.3a.465.465,0,0,1-.693.466L272.3,24.381a.467.467,0,0,0-.636.17l-.374.65-.213.369a.464.464,0,0,0,.17.635l2.382,1.375a.466.466,0,0,1-.057.834l-1.215.5a.465.465,0,0,0-.057.833l.786.454a.465.465,0,0,0,.408.028l2.535-1.033a.462.462,0,0,1,.408.028l2.667,1.54a.464.464,0,0,1-.057.833l-5.089,2.075a.465.465,0,0,0-.057.833l1.3.753a.462.462,0,0,0,.408.028l6.511-2.653a.465.465,0,0,1,.408.028l7.738,4.467-7.738,4.468a.465.465,0,0,1-.408.027l-6.511-2.653a.462.462,0,0,0-.408.028l-1.3.753a.465.465,0,0,0,.057.833l5.089,2.075a.464.464,0,0,1,.057.833l-2.667,1.54a.462.462,0,0,1-.408.028l-2.535-1.033a.468.468,0,0,0-.408.028l-.786.454a.465.465,0,0,0,.057.833l1.215.495a.466.466,0,0,1,.057.834l-2.382,1.375a.464.464,0,0,0-.17.635l.374.65.213.369a.467.467,0,0,0,.636.17l2.382-1.375a.465.465,0,0,1,.693.466l-.179,1.3a.466.466,0,0,0,.694.466l.786-.454a.465.465,0,0,0,.228-.339l.372-2.711a.466.466,0,0,1,.229-.34l2.667-1.54a.466.466,0,0,1,.694.466l-.749,5.445a.465.465,0,0,0,.693.466l1.3-.753a.466.466,0,0,0,.229-.34l.957-6.965a.465.465,0,0,1,.228-.34l7.738-4.467v8.935a.464.464,0,0,1-.18.367l-5.554,4.312a.466.466,0,0,0-.179.367v1.507a.464.464,0,0,0,.75.367l4.341-3.37a.465.465,0,0,1,.75.367v3.081a.466.466,0,0,1-.179.367l-2.162,1.678a.464.464,0,0,0-.18.368V58.1a.465.465,0,0,0,.75.367l1.036-.8a.465.465,0,0,1,.75.368v2.75a.465.465,0,0,0,.465.465h1.176a.465.465,0,0,0,.465-.465v-2.75a.466.466,0,0,1,.751-.368l1.035.8a.465.465,0,0,0,.751-.367v-.907a.467.467,0,0,0-.18-.368l-2.162-1.678a.467.467,0,0,1-.18-.367V51.7a.465.465,0,0,1,.751-.367l4.341,3.37a.465.465,0,0,0,.75-.367V52.83a.464.464,0,0,0-.18-.367l-5.553-4.312a.464.464,0,0,1-.18-.367V38.849l7.738,4.467a.467.467,0,0,1,.228.34l.957,6.965a.467.467,0,0,0,.228.34l1.3.753a.465.465,0,0,0,.693-.466l-.748-5.445a.465.465,0,0,1,.693-.466l2.668,1.54a.462.462,0,0,1,.228.34l.373,2.711a.465.465,0,0,0,.228.339l.786.454a.465.465,0,0,0,.693-.466l-.178-1.3a.465.465,0,0,1,.693-.466l2.382,1.375a.465.465,0,0,0,.635-.17l.213-.369.375-.65A.465.465,0,0,0,313.275,48.041Z"/><path class="d" d="M63.034,269.761l-2.382-1.376a.465.465,0,0,1,.057-.833l1.214-.495a.465.465,0,0,0,.057-.833l-.785-.454a.467.467,0,0,0-.409-.028l-2.534,1.033a.465.465,0,0,1-.408-.028l-2.668-1.54a.466.466,0,0,1,.057-.834l5.09-2.074a.465.465,0,0,0,.057-.833l-1.305-.754a.465.465,0,0,0-.408-.028l-6.511,2.654a.465.465,0,0,1-.408-.028l-7.738-4.467,7.738-4.468a.465.465,0,0,1,.408-.028L58.667,257a.465.465,0,0,0,.408-.028l1.305-.753a.466.466,0,0,0-.057-.834l-5.09-2.074a.466.466,0,0,1-.057-.834l2.668-1.54a.465.465,0,0,1,.408-.028l2.534,1.033a.467.467,0,0,0,.409-.028l.785-.453a.465.465,0,0,0-.057-.834l-1.214-.5a.465.465,0,0,1-.057-.833l2.382-1.375a.466.466,0,0,0,.17-.636l-.213-.369-.375-.649a.464.464,0,0,0-.635-.17L59.6,247.476a.465.465,0,0,1-.693-.466l.178-1.3a.465.465,0,0,0-.693-.467l-.786.454a.465.465,0,0,0-.228.34L57,248.749a.463.463,0,0,1-.228.339l-2.668,1.541a.465.465,0,0,1-.693-.466l.748-5.445a.464.464,0,0,0-.693-.466l-1.305.753a.467.467,0,0,0-.228.339l-.957,6.966a.466.466,0,0,1-.229.339l-7.737,4.468v-8.935a.464.464,0,0,1,.179-.367l5.554-4.312a.464.464,0,0,0,.18-.368v-1.506a.465.465,0,0,0-.75-.368l-4.342,3.371a.465.465,0,0,1-.75-.368v-3.08a.465.465,0,0,1,.18-.367l2.162-1.679a.467.467,0,0,0,.18-.367v-.907a.466.466,0,0,0-.751-.368l-1.035.8a.465.465,0,0,1-.751-.367v-2.75a.466.466,0,0,0-.465-.466H41.429a.466.466,0,0,0-.465.466v2.75a.465.465,0,0,1-.75.367l-1.036-.8a.465.465,0,0,0-.75.368v.907a.464.464,0,0,0,.18.367l2.161,1.679a.462.462,0,0,1,.18.367v3.08a.465.465,0,0,1-.75.368l-4.341-3.371a.466.466,0,0,0-.751.368v1.506a.467.467,0,0,0,.18.368l5.554,4.312a.465.465,0,0,1,.18.367v8.935l-7.738-4.468a.465.465,0,0,1-.228-.339l-.958-6.966a.462.462,0,0,0-.228-.339l-1.305-.753a.464.464,0,0,0-.693.466l.748,5.445a.465.465,0,0,1-.693.466l-2.668-1.541a.465.465,0,0,1-.228-.339l-.372-2.711a.466.466,0,0,0-.229-.34l-.785-.454a.466.466,0,0,0-.694.467l.179,1.3a.465.465,0,0,1-.693.466L22.054,246.1a.465.465,0,0,0-.636.17l-.375.649-.213.369a.466.466,0,0,0,.171.636l2.381,1.375a.464.464,0,0,1-.057.833l-1.214.5a.466.466,0,0,0-.057.834l.786.453a.465.465,0,0,0,.408.028l2.534-1.033a.467.467,0,0,1,.409.028l2.667,1.54a.466.466,0,0,1-.057.834l-5.089,2.074a.465.465,0,0,0-.057.834l1.3.753a.467.467,0,0,0,.409.028l6.511-2.654a.465.465,0,0,1,.408.028l7.737,4.468-7.737,4.467a.465.465,0,0,1-.408.028l-6.511-2.654a.467.467,0,0,0-.409.028l-1.3.754a.465.465,0,0,0,.057.833l5.089,2.074a.466.466,0,0,1,.057.834l-2.667,1.54a.467.467,0,0,1-.409.028l-2.534-1.033a.465.465,0,0,0-.408.028l-.786.454a.465.465,0,0,0,.057.833l1.214.495a.464.464,0,0,1,.057.833L21,269.761a.465.465,0,0,0-.171.635l.375.649.213.369a.466.466,0,0,0,.636.171l2.382-1.376a.465.465,0,0,1,.693.466l-.179,1.3a.466.466,0,0,0,.694.466l.785-.454a.466.466,0,0,0,.229-.34l.372-2.711a.465.465,0,0,1,.228-.339l2.668-1.54a.464.464,0,0,1,.693.466l-.748,5.444a.465.465,0,0,0,.693.467l1.305-.754a.462.462,0,0,0,.228-.339l.958-6.966a.465.465,0,0,1,.228-.339l7.738-4.468V269.5a.469.469,0,0,1-.18.368l-5.554,4.311a.469.469,0,0,0-.18.368v1.507a.466.466,0,0,0,.751.367l4.341-3.371a.465.465,0,0,1,.75.368v3.08a.462.462,0,0,1-.18.367l-2.161,1.679a.464.464,0,0,0-.18.367v.908a.465.465,0,0,0,.75.367l1.036-.8a.465.465,0,0,1,.75.367V282.5a.465.465,0,0,0,.465.465H42.6a.465.465,0,0,0,.465-.465v-2.751a.465.465,0,0,1,.751-.367l1.035.8a.466.466,0,0,0,.751-.367v-.908a.467.467,0,0,0-.18-.367l-2.162-1.679a.465.465,0,0,1-.18-.367v-3.08a.465.465,0,0,1,.75-.368l4.342,3.371a.465.465,0,0,0,.75-.367V274.55a.466.466,0,0,0-.18-.368l-5.554-4.311a.468.468,0,0,1-.179-.368v-8.935l7.737,4.468a.466.466,0,0,1,.229.339l.957,6.966a.467.467,0,0,0,.228.339l1.305.754a.465.465,0,0,0,.693-.467l-.748-5.444a.464.464,0,0,1,.693-.466l2.668,1.54a.463.463,0,0,1,.228.339l.373,2.711a.464.464,0,0,0,.228.34l.786.454a.465.465,0,0,0,.693-.466l-.178-1.3a.465.465,0,0,1,.693-.466l2.382,1.376a.465.465,0,0,0,.635-.171l.213-.369.375-.649A.464.464,0,0,0,63.034,269.761Z"/><path class="d" d="M62.333,167.076A5.076,5.076,0,1,1,57.258,162,5.075,5.075,0,0,1,62.333,167.076Z"/><circle class="d" cx="5.076" cy="5.076" r="5.076" transform="translate(156.924 83.924)"/><path class="d" d="M383.756,37.123a5.076,5.076,0,1,1-5.076-5.076A5.077,5.077,0,0,1,383.756,37.123Z"/><circle class="d" cx="5.076" cy="5.076" r="5.076" transform="translate(464.523 244.924)"/><path class="d" d="M388.831,262.639a5.076,5.076,0,1,1-5.075-5.075A5.075,5.075,0,0,1,388.831,262.639Z"/><path class="d" d="M196.742,28a5.076,5.076,0,1,1-5.075-5.076A5.076,5.076,0,0,1,196.742,28Z"/><path class="d" d="M447.492,132.973a5.076,5.076,0,1,1-5.076-5.076A5.076,5.076,0,0,1,447.492,132.973Z"/><path class="d" d="M341.076,101.333A5.076,5.076,0,1,1,336,96.258,5.076,5.076,0,0,1,341.076,101.333Z"/><path class="d" d="M33.742,28a5.076,5.076,0,1,1-5.075-5.076A5.076,5.076,0,0,1,33.742,28Z"/><path class="d" d="M139.52,224.874a5.076,5.076,0,1,1-5.076-5.075A5.075,5.075,0,0,1,139.52,224.874Z"/></g><g transform="translate(-20.768 277.002)"><path class="d" d="M94.448,85.793l-2.382-1.375a.465.465,0,0,1,.057-.834l1.214-.494a.466.466,0,0,0,.057-.834l-.786-.454a.465.465,0,0,0-.408-.027l-2.534,1.032a.462.462,0,0,1-.408-.028l-2.668-1.54a.465.465,0,0,1,.057-.833l5.09-2.074a.466.466,0,0,0,.057-.834l-1.305-.753a.465.465,0,0,0-.408-.028L83.57,79.37a.462.462,0,0,1-.408-.028l-7.738-4.467,7.738-4.467a.462.462,0,0,1,.408-.028l6.511,2.653a.465.465,0,0,0,.408-.027l1.305-.754a.465.465,0,0,0-.057-.833l-5.09-2.075a.465.465,0,0,1-.057-.833l2.668-1.54a.465.465,0,0,1,.408-.028L92.2,67.976a.465.465,0,0,0,.408-.028l.786-.454a.465.465,0,0,0-.057-.833l-1.214-.5a.465.465,0,0,1-.057-.834l2.382-1.375a.465.465,0,0,0,.17-.635l-.213-.369-.375-.65a.466.466,0,0,0-.635-.17l-2.382,1.375a.465.465,0,0,1-.694-.466l.179-1.3a.465.465,0,0,0-.693-.466l-.786.454a.462.462,0,0,0-.228.339l-.373,2.712a.467.467,0,0,1-.228.339l-2.668,1.54a.465.465,0,0,1-.693-.466l.748-5.445a.465.465,0,0,0-.693-.466l-1.305.754a.463.463,0,0,0-.228.339l-.958,6.965a.462.462,0,0,1-.228.34l-7.738,4.467V64.215a.467.467,0,0,1,.18-.368l5.554-4.312a.467.467,0,0,0,.18-.367V57.661a.465.465,0,0,0-.751-.367l-4.341,3.37a.465.465,0,0,1-.75-.367v-3.08a.464.464,0,0,1,.18-.368l2.162-1.678a.466.466,0,0,0,.179-.368V53.9a.465.465,0,0,0-.75-.367l-1.036.8a.465.465,0,0,1-.75-.367V51.215a.465.465,0,0,0-.465-.465H72.843a.465.465,0,0,0-.465.465v2.751a.465.465,0,0,1-.75.367l-1.036-.8a.465.465,0,0,0-.75.367V54.8a.466.466,0,0,0,.179.368l2.162,1.678a.464.464,0,0,1,.18.368V60.3a.465.465,0,0,1-.75.367l-4.341-3.37a.465.465,0,0,0-.751.367v1.507a.467.467,0,0,0,.18.367l5.554,4.312a.467.467,0,0,1,.18.368v8.934L64.7,68.682a.462.462,0,0,1-.228-.34l-.958-6.965a.463.463,0,0,0-.228-.339l-1.305-.754a.465.465,0,0,0-.693.466l.748,5.445a.465.465,0,0,1-.693.466l-2.668-1.54a.467.467,0,0,1-.228-.339l-.373-2.712a.462.462,0,0,0-.228-.339l-.786-.454a.465.465,0,0,0-.693.466l.179,1.3a.465.465,0,0,1-.694.466l-2.382-1.375a.466.466,0,0,0-.635.17l-.375.65-.213.369a.465.465,0,0,0,.17.635L54.8,65.332a.466.466,0,0,1-.057.834l-1.214.5a.465.465,0,0,0-.057.833l.786.454a.465.465,0,0,0,.408.028L57.2,66.943a.465.465,0,0,1,.408.028l2.668,1.54a.465.465,0,0,1-.057.833l-5.09,2.075a.465.465,0,0,0-.057.833l1.305.754a.465.465,0,0,0,.408.027l6.511-2.653a.462.462,0,0,1,.408.028l7.738,4.467L63.7,79.342a.462.462,0,0,1-.408.028l-6.511-2.653a.465.465,0,0,0-.408.028l-1.305.753a.466.466,0,0,0,.057.834l5.09,2.074a.465.465,0,0,1,.057.833L57.6,82.779a.462.462,0,0,1-.408.028l-2.534-1.032a.465.465,0,0,0-.408.027l-.786.454a.466.466,0,0,0,.057.834l1.214.494a.466.466,0,0,1,.057.834l-2.382,1.375a.466.466,0,0,0-.17.635l.375.65.213.369a.466.466,0,0,0,.635.17l2.382-1.375a.466.466,0,0,1,.694.466l-.179,1.3a.465.465,0,0,0,.693.466l.786-.453a.464.464,0,0,0,.228-.34l.373-2.711a.467.467,0,0,1,.228-.34l2.668-1.54a.465.465,0,0,1,.693.466L61.285,89a.465.465,0,0,0,.693.466l1.305-.753a.464.464,0,0,0,.228-.34l.958-6.965a.462.462,0,0,1,.228-.34L72.435,76.6v8.935a.467.467,0,0,1-.18.367L66.7,90.215a.467.467,0,0,0-.18.367v1.507a.465.465,0,0,0,.751.367l4.341-3.37a.465.465,0,0,1,.75.367v3.081a.464.464,0,0,1-.18.367l-2.162,1.678a.466.466,0,0,0-.179.368v.907a.464.464,0,0,0,.75.367l1.036-.8a.465.465,0,0,1,.75.368v2.75a.465.465,0,0,0,.465.465h1.176a.465.465,0,0,0,.465-.465v-2.75a.465.465,0,0,1,.75-.368l1.036.8a.464.464,0,0,0,.75-.367v-.907a.466.466,0,0,0-.179-.368L74.679,92.9a.464.464,0,0,1-.18-.367V89.453a.465.465,0,0,1,.75-.367l4.341,3.37a.465.465,0,0,0,.751-.367V90.582a.467.467,0,0,0-.18-.367L74.607,85.9a.467.467,0,0,1-.18-.367V76.6l7.738,4.467a.462.462,0,0,1,.228.34l.958,6.965a.464.464,0,0,0,.228.34l1.305.753A.465.465,0,0,0,85.577,89l-.748-5.445a.465.465,0,0,1,.693-.466l2.668,1.54a.467.467,0,0,1,.228.34l.373,2.711a.464.464,0,0,0,.228.34l.786.453a.465.465,0,0,0,.693-.466l-.179-1.3a.466.466,0,0,1,.694-.466l2.382,1.375a.466.466,0,0,0,.635-.17l.213-.369.375-.65A.466.466,0,0,0,94.448,85.793Z"/><path class="d" d="M151.976,175.862l-2.382-1.375a.465.465,0,0,1,.057-.833l1.215-.5a.466.466,0,0,0,.057-.834l-.786-.454a.468.468,0,0,0-.408-.028l-2.535,1.034a.469.469,0,0,1-.408-.028l-2.667-1.541a.464.464,0,0,1,.057-.833l5.089-2.074a.466.466,0,0,0,.057-.834l-1.305-.753a.465.465,0,0,0-.408-.028L141.1,169.44a.469.469,0,0,1-.408-.028l-7.738-4.468,7.738-4.467a.465.465,0,0,1,.408-.028l6.511,2.653a.465.465,0,0,0,.408-.027l1.305-.754a.465.465,0,0,0-.057-.833l-5.089-2.075a.464.464,0,0,1-.057-.833l2.667-1.54a.465.465,0,0,1,.408-.028l2.535,1.033a.465.465,0,0,0,.408-.028l.786-.454a.465.465,0,0,0-.057-.833l-1.215-.495a.466.466,0,0,1-.057-.834l2.382-1.375a.465.465,0,0,0,.171-.635l-.214-.369-.374-.649a.466.466,0,0,0-.636-.171l-2.382,1.375a.465.465,0,0,1-.693-.466l.179-1.3a.466.466,0,0,0-.694-.466l-.785.454a.466.466,0,0,0-.229.339l-.372,2.712a.466.466,0,0,1-.229.339l-2.667,1.54a.466.466,0,0,1-.694-.466l.749-5.445a.465.465,0,0,0-.693-.466l-1.3.753a.468.468,0,0,0-.229.34l-.957,6.966a.465.465,0,0,1-.228.339l-7.738,4.467v-8.935a.464.464,0,0,1,.18-.367l5.554-4.312a.464.464,0,0,0,.179-.367V147.73a.465.465,0,0,0-.75-.367l-4.341,3.37a.464.464,0,0,1-.75-.367v-3.08a.466.466,0,0,1,.179-.368l2.162-1.678a.464.464,0,0,0,.18-.367v-.908a.465.465,0,0,0-.75-.367l-1.036.8a.465.465,0,0,1-.75-.367v-2.751a.465.465,0,0,0-.465-.465h-1.176a.465.465,0,0,0-.465.465v2.751a.466.466,0,0,1-.751.367l-1.035-.8a.465.465,0,0,0-.751.367v.908a.467.467,0,0,0,.18.367l2.162,1.678a.467.467,0,0,1,.18.368v3.08a.465.465,0,0,1-.751.367l-4.341-3.37a.465.465,0,0,0-.75.367v1.507a.462.462,0,0,0,.18.367l5.553,4.312a.464.464,0,0,1,.18.367v8.935l-7.738-4.467a.467.467,0,0,1-.228-.339l-.957-6.966a.469.469,0,0,0-.228-.34l-1.3-.753a.465.465,0,0,0-.693.466l.748,5.445a.465.465,0,0,1-.693.466l-2.668-1.54a.465.465,0,0,1-.228-.339l-.373-2.712a.467.467,0,0,0-.228-.339l-.786-.454a.465.465,0,0,0-.693.466l.178,1.3a.465.465,0,0,1-.693.466L111,152.2a.465.465,0,0,0-.635.171l-.375.649-.213.369a.465.465,0,0,0,.17.635l2.382,1.375a.466.466,0,0,1-.057.834l-1.214.495a.465.465,0,0,0-.057.833l.785.454a.465.465,0,0,0,.408.028l2.535-1.033a.465.465,0,0,1,.408.028l2.668,1.54a.465.465,0,0,1-.057.833l-5.09,2.075a.465.465,0,0,0-.057.833l1.305.754a.465.465,0,0,0,.408.027l6.511-2.653a.465.465,0,0,1,.408.028l7.738,4.467-7.738,4.468a.468.468,0,0,1-.408.028l-6.511-2.654a.465.465,0,0,0-.408.028l-1.305.753a.466.466,0,0,0,.057.834l5.09,2.074a.465.465,0,0,1,.057.833l-2.668,1.541a.468.468,0,0,1-.408.028l-2.535-1.034a.469.469,0,0,0-.408.028l-.785.454a.465.465,0,0,0,.057.834l1.214.5a.465.465,0,0,1,.057.833l-2.382,1.375a.466.466,0,0,0-.17.636l.375.649.213.369a.465.465,0,0,0,.635.17l2.382-1.375a.465.465,0,0,1,.693.466l-.178,1.3a.465.465,0,0,0,.693.466l.786-.454a.465.465,0,0,0,.228-.339l.373-2.711a.465.465,0,0,1,.228-.34l2.668-1.54a.465.465,0,0,1,.693.466l-.748,5.445a.465.465,0,0,0,.693.466l1.3-.753a.467.467,0,0,0,.228-.34l.957-6.965a.467.467,0,0,1,.228-.34l7.738-4.467V175.6a.464.464,0,0,1-.18.367l-5.553,4.312a.464.464,0,0,0-.18.367v1.507a.465.465,0,0,0,.75.367l4.341-3.37a.465.465,0,0,1,.751.367V182.6a.467.467,0,0,1-.18.367l-2.162,1.678a.467.467,0,0,0-.18.368v.907a.466.466,0,0,0,.751.368l1.035-.805a.466.466,0,0,1,.751.368v2.75a.465.465,0,0,0,.465.465h1.176a.465.465,0,0,0,.465-.465v-2.75a.465.465,0,0,1,.75-.368l1.036.805a.465.465,0,0,0,.75-.368v-.907a.464.464,0,0,0-.18-.368l-2.162-1.678a.466.466,0,0,1-.179-.367v-3.081a.465.465,0,0,1,.75-.367l4.341,3.37a.464.464,0,0,0,.75-.367v-1.507a.466.466,0,0,0-.179-.367l-5.554-4.312a.464.464,0,0,1-.18-.367V166.67l7.738,4.467a.465.465,0,0,1,.228.34l.957,6.965a.466.466,0,0,0,.229.34l1.3.753a.465.465,0,0,0,.693-.466l-.749-5.445a.466.466,0,0,1,.694-.466l2.667,1.54a.466.466,0,0,1,.229.34l.372,2.711a.464.464,0,0,0,.229.339l.785.454a.466.466,0,0,0,.694-.466l-.179-1.3a.465.465,0,0,1,.693-.466l2.382,1.375a.466.466,0,0,0,.636-.17l.213-.369.375-.649A.466.466,0,0,0,151.976,175.862Z"/><path class="d" d="M490.616,72.166l-2.382-1.375a.466.466,0,0,1,.057-.834l1.214-.5a.465.465,0,0,0,.057-.833l-.786-.454a.468.468,0,0,0-.408-.028l-2.534,1.033a.462.462,0,0,1-.408-.028l-2.668-1.54a.465.465,0,0,1,.057-.833L487.9,64.7a.465.465,0,0,0,.057-.833l-1.3-.753a.462.462,0,0,0-.408-.028l-6.511,2.653a.465.465,0,0,1-.408-.027l-7.738-4.468,7.738-4.467a.465.465,0,0,1,.408-.028l6.511,2.653a.462.462,0,0,0,.408-.028l1.3-.753a.465.465,0,0,0-.057-.833l-5.09-2.075a.465.465,0,0,1-.057-.833l2.668-1.54a.462.462,0,0,1,.408-.028l2.534,1.033a.465.465,0,0,0,.408-.028l.786-.454a.465.465,0,0,0-.057-.833l-1.214-.495a.466.466,0,0,1-.057-.834l2.382-1.375a.465.465,0,0,0,.17-.635l-.213-.369-.375-.65a.465.465,0,0,0-.635-.17l-2.382,1.375a.465.465,0,0,1-.693-.466l.178-1.3a.465.465,0,0,0-.693-.466l-.786.454a.464.464,0,0,0-.228.339l-.373,2.711a.465.465,0,0,1-.228.34l-2.668,1.54a.465.465,0,0,1-.693-.466l.748-5.445a.465.465,0,0,0-.693-.466l-1.3.753a.466.466,0,0,0-.228.34l-.957,6.965a.466.466,0,0,1-.229.34L470.6,59.522V50.587a.466.466,0,0,1,.179-.367l5.554-4.312a.462.462,0,0,0,.18-.367V44.034a.465.465,0,0,0-.75-.367l-4.342,3.37a.465.465,0,0,1-.75-.367V43.59a.464.464,0,0,1,.18-.368l2.162-1.678a.467.467,0,0,0,.18-.368v-.907a.465.465,0,0,0-.751-.367l-1.035.8a.466.466,0,0,1-.751-.368v-2.75a.465.465,0,0,0-.465-.465h-1.176a.465.465,0,0,0-.465.465v2.75a.465.465,0,0,1-.75.368l-1.036-.8a.464.464,0,0,0-.75.367v.907a.464.464,0,0,0,.18.368l2.161,1.678a.464.464,0,0,1,.18.368v3.08a.465.465,0,0,1-.75.367l-4.341-3.37a.465.465,0,0,0-.751.367v1.507a.465.465,0,0,0,.18.367l5.554,4.312a.467.467,0,0,1,.18.367v8.935l-7.738-4.467a.465.465,0,0,1-.228-.34l-.958-6.965a.464.464,0,0,0-.228-.34l-1.3-.753a.465.465,0,0,0-.693.466l.748,5.445a.465.465,0,0,1-.693.466l-2.668-1.54a.467.467,0,0,1-.228-.34l-.372-2.711a.466.466,0,0,0-.229-.339l-.785-.454a.466.466,0,0,0-.694.466l.179,1.3a.466.466,0,0,1-.694.466l-2.381-1.375a.467.467,0,0,0-.636.17l-.375.65-.213.369a.465.465,0,0,0,.171.635l2.381,1.375a.465.465,0,0,1-.057.834l-1.214.495a.465.465,0,0,0-.057.833l.786.454a.465.465,0,0,0,.408.028l2.534-1.033a.462.462,0,0,1,.408.028l2.668,1.54a.465.465,0,0,1-.057.833l-5.089,2.075a.464.464,0,0,0-.057.833l1.3.753a.462.462,0,0,0,.408.028l6.511-2.653a.467.467,0,0,1,.409.028l7.737,4.467-7.737,4.468a.467.467,0,0,1-.409.027l-6.511-2.653a.462.462,0,0,0-.408.028l-1.3.753a.464.464,0,0,0,.057.833l5.089,2.075a.465.465,0,0,1,.057.833l-2.668,1.54a.462.462,0,0,1-.408.028l-2.534-1.033a.468.468,0,0,0-.408.028l-.786.454a.465.465,0,0,0,.057.833l1.214.5a.465.465,0,0,1,.057.834l-2.381,1.375a.465.465,0,0,0-.171.635l.375.65.213.369a.467.467,0,0,0,.636.17l2.381-1.375a.466.466,0,0,1,.694.466l-.179,1.3a.466.466,0,0,0,.694.466l.785-.454a.464.464,0,0,0,.229-.339l.372-2.711a.467.467,0,0,1,.228-.34l2.668-1.54a.465.465,0,0,1,.693.466l-.748,5.445a.465.465,0,0,0,.693.466l1.3-.753a.462.462,0,0,0,.228-.34l.958-6.965a.465.465,0,0,1,.228-.34l7.738-4.467v8.935a.467.467,0,0,1-.18.367l-5.554,4.312a.467.467,0,0,0-.18.367v1.507a.465.465,0,0,0,.751.367l4.341-3.37a.465.465,0,0,1,.75.367v3.081a.464.464,0,0,1-.18.367l-2.161,1.678a.464.464,0,0,0-.18.368v.907a.464.464,0,0,0,.75.367l1.036-.8a.465.465,0,0,1,.75.368v2.75a.465.465,0,0,0,.465.465h1.176a.465.465,0,0,0,.465-.465v-2.75a.466.466,0,0,1,.751-.368l1.035.8a.465.465,0,0,0,.751-.367V81.32a.467.467,0,0,0-.18-.368l-2.162-1.678a.464.464,0,0,1-.18-.367V75.826a.465.465,0,0,1,.75-.367l4.342,3.37a.465.465,0,0,0,.75-.367V76.955a.464.464,0,0,0-.18-.367l-5.554-4.312a.466.466,0,0,1-.179-.367V62.974l7.737,4.467a.466.466,0,0,1,.229.34l.957,6.965a.464.464,0,0,0,.228.34l1.3.753a.465.465,0,0,0,.693-.466L481,69.928a.465.465,0,0,1,.693-.466L484.358,71a.465.465,0,0,1,.228.34l.373,2.711a.463.463,0,0,0,.228.339l.786.454a.465.465,0,0,0,.693-.466l-.178-1.3a.465.465,0,0,1,.693-.466l2.382,1.375a.465.465,0,0,0,.635-.17l.213-.369.375-.65A.465.465,0,0,0,490.616,72.166Z"/><path class="d" d="M448.117,211.429l-2.382-1.375a.465.465,0,0,1,.057-.833l1.215-.495a.466.466,0,0,0,.057-.834l-.786-.453a.462.462,0,0,0-.408-.028l-2.535,1.033a.465.465,0,0,1-.408-.028l-2.667-1.54a.465.465,0,0,1,.057-.834l5.089-2.074a.465.465,0,0,0,.057-.834l-1.305-.753a.465.465,0,0,0-.408-.028l-6.511,2.654a.465.465,0,0,1-.408-.028l-7.738-4.468,7.738-4.467a.465.465,0,0,1,.408-.028l6.511,2.654a.465.465,0,0,0,.408-.028l1.305-.754a.465.465,0,0,0-.057-.833l-5.089-2.074a.465.465,0,0,1-.057-.834l2.667-1.54a.465.465,0,0,1,.408-.028l2.535,1.033a.465.465,0,0,0,.408-.028l.786-.454a.465.465,0,0,0-.057-.833l-1.215-.495a.466.466,0,0,1-.057-.834l2.382-1.375a.465.465,0,0,0,.171-.635l-.214-.369-.374-.649a.466.466,0,0,0-.636-.171l-2.382,1.376a.465.465,0,0,1-.693-.467l.179-1.3a.466.466,0,0,0-.694-.466l-.785.454a.466.466,0,0,0-.229.339l-.372,2.712a.466.466,0,0,1-.229.339l-2.667,1.54a.465.465,0,0,1-.694-.466l.749-5.445a.465.465,0,0,0-.693-.466l-1.3.754a.464.464,0,0,0-.229.339l-.957,6.966a.464.464,0,0,1-.228.339l-7.738,4.467v-8.934a.464.464,0,0,1,.18-.368l5.554-4.312a.464.464,0,0,0,.179-.367V183.3a.465.465,0,0,0-.75-.367l-4.341,3.371a.465.465,0,0,1-.75-.368v-3.08a.468.468,0,0,1,.179-.368l2.162-1.678a.464.464,0,0,0,.18-.367v-.908a.465.465,0,0,0-.75-.367l-1.036.8a.465.465,0,0,1-.75-.367v-2.751a.466.466,0,0,0-.465-.465h-1.176a.465.465,0,0,0-.465.465V179.6a.465.465,0,0,1-.751.367l-1.035-.8a.465.465,0,0,0-.751.367v.908a.467.467,0,0,0,.18.367l2.162,1.678a.469.469,0,0,1,.18.368v3.08a.466.466,0,0,1-.751.368l-4.341-3.371a.465.465,0,0,0-.75.367V184.8a.462.462,0,0,0,.18.367l5.553,4.312a.464.464,0,0,1,.18.368v8.934l-7.738-4.467a.467.467,0,0,1-.228-.339l-.957-6.966a.465.465,0,0,0-.228-.339l-1.3-.754a.465.465,0,0,0-.693.466l.748,5.445a.464.464,0,0,1-.693.466l-2.668-1.54a.464.464,0,0,1-.228-.339l-.373-2.712a.467.467,0,0,0-.228-.339l-.786-.454a.465.465,0,0,0-.693.466l.178,1.3a.465.465,0,0,1-.693.467l-2.382-1.376a.465.465,0,0,0-.635.171l-.375.649-.213.369a.465.465,0,0,0,.17.635l2.382,1.375a.466.466,0,0,1-.057.834l-1.214.495a.465.465,0,0,0-.057.833l.785.454a.465.465,0,0,0,.408.028l2.535-1.033a.465.465,0,0,1,.408.028l2.668,1.54a.466.466,0,0,1-.057.834l-5.09,2.074a.465.465,0,0,0-.057.833l1.3.754a.465.465,0,0,0,.408.028l6.511-2.654a.465.465,0,0,1,.408.028l7.738,4.467-7.738,4.468a.465.465,0,0,1-.408.028l-6.511-2.654a.465.465,0,0,0-.408.028l-1.3.753a.466.466,0,0,0,.057.834l5.09,2.074a.466.466,0,0,1,.057.834l-2.668,1.54a.465.465,0,0,1-.408.028l-2.535-1.033a.462.462,0,0,0-.408.028l-.785.453a.465.465,0,0,0,.057.834l1.214.495a.465.465,0,0,1,.057.833l-2.382,1.375a.466.466,0,0,0-.17.636l.375.649.213.369a.465.465,0,0,0,.635.17l2.382-1.375a.465.465,0,0,1,.693.466l-.178,1.3a.465.465,0,0,0,.693.466l.786-.453a.469.469,0,0,0,.228-.34l.373-2.711a.466.466,0,0,1,.228-.34l2.668-1.54a.465.465,0,0,1,.693.466l-.748,5.445a.464.464,0,0,0,.693.466l1.3-.753a.467.467,0,0,0,.228-.339l.957-6.966a.469.469,0,0,1,.228-.34l7.738-4.467v8.935a.462.462,0,0,1-.18.367l-5.553,4.312a.464.464,0,0,0-.18.367v1.507a.465.465,0,0,0,.75.368l4.341-3.371a.466.466,0,0,1,.751.368v3.08a.465.465,0,0,1-.18.367l-2.162,1.679a.465.465,0,0,0-.18.367v.907a.466.466,0,0,0,.751.368l1.035-.805a.466.466,0,0,1,.751.368v2.75a.465.465,0,0,0,.465.465h1.176a.465.465,0,0,0,.465-.465v-2.75a.465.465,0,0,1,.75-.368l1.036.805a.465.465,0,0,0,.75-.368v-.907a.462.462,0,0,0-.18-.367l-2.162-1.679a.464.464,0,0,1-.179-.367v-3.08a.465.465,0,0,1,.75-.368l4.341,3.371a.465.465,0,0,0,.75-.368v-1.507a.466.466,0,0,0-.179-.367l-5.554-4.312a.462.462,0,0,1-.18-.367v-8.935l7.738,4.467a.466.466,0,0,1,.228.34l.957,6.966a.466.466,0,0,0,.229.339l1.3.753a.465.465,0,0,0,.693-.466l-.749-5.445a.466.466,0,0,1,.694-.466l2.667,1.54a.468.468,0,0,1,.229.34l.372,2.711a.468.468,0,0,0,.229.34l.785.453a.466.466,0,0,0,.694-.466l-.179-1.3a.465.465,0,0,1,.693-.466l2.382,1.375a.466.466,0,0,0,.636-.17l.213-.369.375-.649A.466.466,0,0,0,448.117,211.429Z" transform="translate(-22 -14)"/><path class="d" d="M313.275,48.041l-2.382-1.375a.466.466,0,0,1,.057-.834l1.214-.495a.464.464,0,0,0,.057-.833l-.785-.454a.469.469,0,0,0-.408-.028l-2.535,1.033a.462.462,0,0,1-.408-.028l-2.668-1.54a.465.465,0,0,1,.057-.833l5.09-2.075a.465.465,0,0,0,.057-.833l-1.3-.753a.462.462,0,0,0-.408-.028L302.4,41.618a.465.465,0,0,1-.408-.027l-7.738-4.468,7.738-4.467a.465.465,0,0,1,.408-.028l6.511,2.653a.462.462,0,0,0,.408-.028l1.3-.753a.465.465,0,0,0-.057-.833l-5.09-2.075a.465.465,0,0,1-.057-.833l2.668-1.54a.462.462,0,0,1,.408-.028l2.535,1.033a.465.465,0,0,0,.408-.028l.785-.454a.464.464,0,0,0-.057-.833l-1.214-.5a.466.466,0,0,1-.057-.834l2.382-1.375a.465.465,0,0,0,.17-.635l-.213-.369-.375-.65a.465.465,0,0,0-.635-.17l-2.382,1.375a.465.465,0,0,1-.693-.466l.178-1.3a.465.465,0,0,0-.693-.466l-.786.454a.467.467,0,0,0-.228.339l-.373,2.711a.462.462,0,0,1-.228.34l-2.668,1.54a.465.465,0,0,1-.693-.466L304.4,23a.465.465,0,0,0-.693-.466l-1.3.753a.469.469,0,0,0-.228.34l-.957,6.965a.467.467,0,0,1-.228.34L293.255,35.4V26.462a.464.464,0,0,1,.18-.367l5.553-4.312a.462.462,0,0,0,.18-.367V19.909a.465.465,0,0,0-.75-.367l-4.341,3.37a.465.465,0,0,1-.751-.367v-3.08a.467.467,0,0,1,.18-.368l2.162-1.678a.467.467,0,0,0,.18-.368v-.907a.465.465,0,0,0-.751-.367l-1.035.8a.466.466,0,0,1-.751-.368v-2.75a.465.465,0,0,0-.465-.465H291.67a.465.465,0,0,0-.465.465v2.75a.465.465,0,0,1-.75.368l-1.036-.8a.465.465,0,0,0-.75.367v.907a.464.464,0,0,0,.18.368l2.162,1.678a.466.466,0,0,1,.179.368v3.08a.464.464,0,0,1-.75.367l-4.341-3.37a.465.465,0,0,0-.75.367v1.507a.464.464,0,0,0,.179.367l5.554,4.312a.464.464,0,0,1,.18.367V35.4l-7.738-4.467a.465.465,0,0,1-.228-.34l-.957-6.965a.468.468,0,0,0-.229-.34l-1.3-.753a.465.465,0,0,0-.693.466l.749,5.445a.466.466,0,0,1-.694.466l-2.667-1.54a.466.466,0,0,1-.229-.34l-.372-2.711a.467.467,0,0,0-.228-.339l-.786-.454a.466.466,0,0,0-.694.466l.179,1.3a.465.465,0,0,1-.693.466L272.3,24.381a.467.467,0,0,0-.636.17l-.374.65-.213.369a.464.464,0,0,0,.17.635l2.382,1.375a.466.466,0,0,1-.057.834l-1.215.5a.465.465,0,0,0-.057.833l.786.454a.465.465,0,0,0,.408.028l2.535-1.033a.462.462,0,0,1,.408.028l2.667,1.54a.464.464,0,0,1-.057.833l-5.089,2.075a.465.465,0,0,0-.057.833l1.3.753a.462.462,0,0,0,.408.028l6.511-2.653a.465.465,0,0,1,.408.028l7.738,4.467-7.738,4.468a.465.465,0,0,1-.408.027l-6.511-2.653a.462.462,0,0,0-.408.028l-1.3.753a.465.465,0,0,0,.057.833l5.089,2.075a.464.464,0,0,1,.057.833l-2.667,1.54a.462.462,0,0,1-.408.028l-2.535-1.033a.468.468,0,0,0-.408.028l-.786.454a.465.465,0,0,0,.057.833l1.215.495a.466.466,0,0,1,.057.834l-2.382,1.375a.464.464,0,0,0-.17.635l.374.65.213.369a.467.467,0,0,0,.636.17l2.382-1.375a.465.465,0,0,1,.693.466l-.179,1.3a.466.466,0,0,0,.694.466l.786-.454a.465.465,0,0,0,.228-.339l.372-2.711a.466.466,0,0,1,.229-.34l2.667-1.54a.466.466,0,0,1,.694.466l-.749,5.445a.465.465,0,0,0,.693.466l1.3-.753a.466.466,0,0,0,.229-.34l.957-6.965a.465.465,0,0,1,.228-.34l7.738-4.467v8.935a.464.464,0,0,1-.18.367l-5.554,4.312a.466.466,0,0,0-.179.367v1.507a.464.464,0,0,0,.75.367l4.341-3.37a.465.465,0,0,1,.75.367v3.081a.466.466,0,0,1-.179.367l-2.162,1.678a.464.464,0,0,0-.18.368V58.1a.465.465,0,0,0,.75.367l1.036-.8a.465.465,0,0,1,.75.368v2.75a.465.465,0,0,0,.465.465h1.176a.465.465,0,0,0,.465-.465v-2.75a.466.466,0,0,1,.751-.368l1.035.8a.465.465,0,0,0,.751-.367v-.907a.467.467,0,0,0-.18-.368l-2.162-1.678a.467.467,0,0,1-.18-.367V51.7a.465.465,0,0,1,.751-.367l4.341,3.37a.465.465,0,0,0,.75-.367V52.83a.464.464,0,0,0-.18-.367l-5.553-4.312a.464.464,0,0,1-.18-.367V38.849l7.738,4.467a.467.467,0,0,1,.228.34l.957,6.965a.467.467,0,0,0,.228.34l1.3.753a.465.465,0,0,0,.693-.466l-.748-5.445a.465.465,0,0,1,.693-.466l2.668,1.54a.462.462,0,0,1,.228.34l.373,2.711a.465.465,0,0,0,.228.339l.786.454a.465.465,0,0,0,.693-.466l-.178-1.3a.465.465,0,0,1,.693-.466l2.382,1.375a.465.465,0,0,0,.635-.17l.213-.369.375-.65A.465.465,0,0,0,313.275,48.041Z"/><path class="d" d="M63.034,269.761l-2.382-1.376a.465.465,0,0,1,.057-.833l1.214-.495a.465.465,0,0,0,.057-.833l-.785-.454a.467.467,0,0,0-.409-.028l-2.534,1.033a.465.465,0,0,1-.408-.028l-2.668-1.54a.466.466,0,0,1,.057-.834l5.09-2.074a.465.465,0,0,0,.057-.833l-1.305-.754a.465.465,0,0,0-.408-.028l-6.511,2.654a.465.465,0,0,1-.408-.028l-7.738-4.467,7.738-4.468a.465.465,0,0,1,.408-.028L58.667,257a.465.465,0,0,0,.408-.028l1.305-.753a.466.466,0,0,0-.057-.834l-5.09-2.074a.466.466,0,0,1-.057-.834l2.668-1.54a.465.465,0,0,1,.408-.028l2.534,1.033a.467.467,0,0,0,.409-.028l.785-.453a.465.465,0,0,0-.057-.834l-1.214-.5a.465.465,0,0,1-.057-.833l2.382-1.375a.466.466,0,0,0,.17-.636l-.213-.369-.375-.649a.464.464,0,0,0-.635-.17L59.6,247.476a.465.465,0,0,1-.693-.466l.178-1.3a.465.465,0,0,0-.693-.467l-.786.454a.465.465,0,0,0-.228.34L57,248.749a.463.463,0,0,1-.228.339l-2.668,1.541a.465.465,0,0,1-.693-.466l.748-5.445a.464.464,0,0,0-.693-.466l-1.305.753a.467.467,0,0,0-.228.339l-.957,6.966a.466.466,0,0,1-.229.339l-7.737,4.468v-8.935a.464.464,0,0,1,.179-.367l5.554-4.312a.464.464,0,0,0,.18-.368v-1.506a.465.465,0,0,0-.75-.368l-4.342,3.371a.465.465,0,0,1-.75-.368v-3.08a.465.465,0,0,1,.18-.367l2.162-1.679a.467.467,0,0,0,.18-.367v-.907a.466.466,0,0,0-.751-.368l-1.035.8a.465.465,0,0,1-.751-.367v-2.75a.466.466,0,0,0-.465-.466H41.429a.466.466,0,0,0-.465.466v2.75a.465.465,0,0,1-.75.367l-1.036-.8a.465.465,0,0,0-.75.368v.907a.464.464,0,0,0,.18.367l2.161,1.679a.462.462,0,0,1,.18.367v3.08a.465.465,0,0,1-.75.368l-4.341-3.371a.466.466,0,0,0-.751.368v1.506a.467.467,0,0,0,.18.368l5.554,4.312a.465.465,0,0,1,.18.367v8.935l-7.738-4.468a.465.465,0,0,1-.228-.339l-.958-6.966a.462.462,0,0,0-.228-.339l-1.305-.753a.464.464,0,0,0-.693.466l.748,5.445a.465.465,0,0,1-.693.466l-2.668-1.541a.465.465,0,0,1-.228-.339l-.372-2.711a.466.466,0,0,0-.229-.34l-.785-.454a.466.466,0,0,0-.694.467l.179,1.3a.465.465,0,0,1-.693.466L22.054,246.1a.465.465,0,0,0-.636.17l-.375.649-.213.369a.466.466,0,0,0,.171.636l2.381,1.375a.464.464,0,0,1-.057.833l-1.214.5a.466.466,0,0,0-.057.834l.786.453a.465.465,0,0,0,.408.028l2.534-1.033a.467.467,0,0,1,.409.028l2.667,1.54a.466.466,0,0,1-.057.834l-5.089,2.074a.465.465,0,0,0-.057.834l1.3.753a.467.467,0,0,0,.409.028l6.511-2.654a.465.465,0,0,1,.408.028l7.737,4.468-7.737,4.467a.465.465,0,0,1-.408.028l-6.511-2.654a.467.467,0,0,0-.409.028l-1.3.754a.465.465,0,0,0,.057.833l5.089,2.074a.466.466,0,0,1,.057.834l-2.667,1.54a.467.467,0,0,1-.409.028l-2.534-1.033a.465.465,0,0,0-.408.028l-.786.454a.465.465,0,0,0,.057.833l1.214.495a.464.464,0,0,1,.057.833L21,269.761a.465.465,0,0,0-.171.635l.375.649.213.369a.466.466,0,0,0,.636.171l2.382-1.376a.465.465,0,0,1,.693.466l-.179,1.3a.466.466,0,0,0,.694.466l.785-.454a.466.466,0,0,0,.229-.34l.372-2.711a.465.465,0,0,1,.228-.339l2.668-1.54a.464.464,0,0,1,.693.466l-.748,5.444a.465.465,0,0,0,.693.467l1.305-.754a.462.462,0,0,0,.228-.339l.958-6.966a.465.465,0,0,1,.228-.339l7.738-4.468V269.5a.469.469,0,0,1-.18.368l-5.554,4.311a.469.469,0,0,0-.18.368v1.507a.466.466,0,0,0,.751.367l4.341-3.371a.465.465,0,0,1,.75.368v3.08a.462.462,0,0,1-.18.367l-2.161,1.679a.464.464,0,0,0-.18.367v.908a.465.465,0,0,0,.75.367l1.036-.8a.465.465,0,0,1,.75.367V282.5a.465.465,0,0,0,.465.465H42.6a.465.465,0,0,0,.465-.465v-2.751a.465.465,0,0,1,.751-.367l1.035.8a.466.466,0,0,0,.751-.367v-.908a.467.467,0,0,0-.18-.367l-2.162-1.679a.465.465,0,0,1-.18-.367v-3.08a.465.465,0,0,1,.75-.368l4.342,3.371a.465.465,0,0,0,.75-.367V274.55a.466.466,0,0,0-.18-.368l-5.554-4.311a.468.468,0,0,1-.179-.368v-8.935l7.737,4.468a.466.466,0,0,1,.229.339l.957,6.966a.467.467,0,0,0,.228.339l1.305.754a.465.465,0,0,0,.693-.467l-.748-5.444a.464.464,0,0,1,.693-.466l2.668,1.54a.463.463,0,0,1,.228.339l.373,2.711a.464.464,0,0,0,.228.34l.786.454a.465.465,0,0,0,.693-.466l-.178-1.3a.465.465,0,0,1,.693-.466l2.382,1.376a.465.465,0,0,0,.635-.171l.213-.369.375-.649A.464.464,0,0,0,63.034,269.761Z"/><path class="d" d="M62.333,167.076A5.076,5.076,0,1,1,57.258,162,5.075,5.075,0,0,1,62.333,167.076Z"/><circle class="d" cx="5.076" cy="5.076" r="5.076" transform="translate(156.924 83.924)"/><path class="d" d="M383.756,37.123a5.076,5.076,0,1,1-5.076-5.076A5.077,5.077,0,0,1,383.756,37.123Z"/><circle class="d" cx="5.076" cy="5.076" r="5.076" transform="translate(464.523 244.924)"/><path class="d" d="M388.831,262.639a5.076,5.076,0,1,1-5.075-5.075A5.075,5.075,0,0,1,388.831,262.639Z"/><path class="d" d="M196.742,28a5.076,5.076,0,1,1-5.075-5.076A5.076,5.076,0,0,1,196.742,28Z"/><path class="d" d="M447.492,132.973a5.076,5.076,0,1,1-5.076-5.076A5.076,5.076,0,0,1,447.492,132.973Z"/><path class="d" d="M341.076,101.333A5.076,5.076,0,1,1,336,96.258,5.076,5.076,0,0,1,341.076,101.333Z"/><path class="d" d="M33.742,28a5.076,5.076,0,1,1-5.075-5.076A5.076,5.076,0,0,1,33.742,28Z"/><path class="d" d="M139.52,224.874a5.076,5.076,0,1,1-5.076-5.075A5.075,5.075,0,0,1,139.52,224.874Z"/></g></g><g class="c" transform="translate(20.768 12.998)"><g transform="translate(-20.768 -12.998)"><path class="d" d="M94.448,85.793l-2.382-1.375a.465.465,0,0,1,.057-.834l1.214-.494a.466.466,0,0,0,.057-.834l-.786-.454a.465.465,0,0,0-.408-.027l-2.534,1.032a.462.462,0,0,1-.408-.028l-2.668-1.54a.465.465,0,0,1,.057-.833l5.09-2.074a.466.466,0,0,0,.057-.834l-1.305-.753a.465.465,0,0,0-.408-.028L83.57,79.37a.462.462,0,0,1-.408-.028l-7.738-4.467,7.738-4.467a.462.462,0,0,1,.408-.028l6.511,2.653a.465.465,0,0,0,.408-.027l1.305-.754a.465.465,0,0,0-.057-.833l-5.09-2.075a.465.465,0,0,1-.057-.833l2.668-1.54a.465.465,0,0,1,.408-.028L92.2,67.976a.465.465,0,0,0,.408-.028l.786-.454a.465.465,0,0,0-.057-.833l-1.214-.5a.465.465,0,0,1-.057-.834l2.382-1.375a.465.465,0,0,0,.17-.635l-.213-.369-.375-.65a.466.466,0,0,0-.635-.17l-2.382,1.375a.465.465,0,0,1-.694-.466l.179-1.3a.465.465,0,0,0-.693-.466l-.786.454a.462.462,0,0,0-.228.339l-.373,2.712a.467.467,0,0,1-.228.339l-2.668,1.54a.465.465,0,0,1-.693-.466l.748-5.445a.465.465,0,0,0-.693-.466l-1.305.754a.463.463,0,0,0-.228.339l-.958,6.965a.462.462,0,0,1-.228.34l-7.738,4.467V64.215a.467.467,0,0,1,.18-.368l5.554-4.312a.467.467,0,0,0,.18-.367V57.661a.465.465,0,0,0-.751-.367l-4.341,3.37a.465.465,0,0,1-.75-.367v-3.08a.464.464,0,0,1,.18-.368l2.162-1.678a.466.466,0,0,0,.179-.368V53.9a.465.465,0,0,0-.75-.367l-1.036.8a.465.465,0,0,1-.75-.367V51.215a.465.465,0,0,0-.465-.465H72.843a.465.465,0,0,0-.465.465v2.751a.465.465,0,0,1-.75.367l-1.036-.8a.465.465,0,0,0-.75.367V54.8a.466.466,0,0,0,.179.368l2.162,1.678a.464.464,0,0,1,.18.368V60.3a.465.465,0,0,1-.75.367l-4.341-3.37a.465.465,0,0,0-.751.367v1.507a.467.467,0,0,0,.18.367l5.554,4.312a.467.467,0,0,1,.18.368v8.934L64.7,68.682a.462.462,0,0,1-.228-.34l-.958-6.965a.463.463,0,0,0-.228-.339l-1.305-.754a.465.465,0,0,0-.693.466l.748,5.445a.465.465,0,0,1-.693.466l-2.668-1.54a.467.467,0,0,1-.228-.339l-.373-2.712a.462.462,0,0,0-.228-.339l-.786-.454a.465.465,0,0,0-.693.466l.179,1.3a.465.465,0,0,1-.694.466l-2.382-1.375a.466.466,0,0,0-.635.17l-.375.65-.213.369a.465.465,0,0,0,.17.635L54.8,65.332a.466.466,0,0,1-.057.834l-1.214.5a.465.465,0,0,0-.057.833l.786.454a.465.465,0,0,0,.408.028L57.2,66.943a.465.465,0,0,1,.408.028l2.668,1.54a.465.465,0,0,1-.057.833l-5.09,2.075a.465.465,0,0,0-.057.833l1.305.754a.465.465,0,0,0,.408.027l6.511-2.653a.462.462,0,0,1,.408.028l7.738,4.467L63.7,79.342a.462.462,0,0,1-.408.028l-6.511-2.653a.465.465,0,0,0-.408.028l-1.305.753a.466.466,0,0,0,.057.834l5.09,2.074a.465.465,0,0,1,.057.833L57.6,82.779a.462.462,0,0,1-.408.028l-2.534-1.032a.465.465,0,0,0-.408.027l-.786.454a.466.466,0,0,0,.057.834l1.214.494a.466.466,0,0,1,.057.834l-2.382,1.375a.466.466,0,0,0-.17.635l.375.65.213.369a.466.466,0,0,0,.635.17l2.382-1.375a.466.466,0,0,1,.694.466l-.179,1.3a.465.465,0,0,0,.693.466l.786-.453a.464.464,0,0,0,.228-.34l.373-2.711a.467.467,0,0,1,.228-.34l2.668-1.54a.465.465,0,0,1,.693.466L61.285,89a.465.465,0,0,0,.693.466l1.305-.753a.464.464,0,0,0,.228-.34l.958-6.965a.462.462,0,0,1,.228-.34L72.435,76.6v8.935a.467.467,0,0,1-.18.367L66.7,90.215a.467.467,0,0,0-.18.367v1.507a.465.465,0,0,0,.751.367l4.341-3.37a.465.465,0,0,1,.75.367v3.081a.464.464,0,0,1-.18.367l-2.162,1.678a.466.466,0,0,0-.179.368v.907a.464.464,0,0,0,.75.367l1.036-.8a.465.465,0,0,1,.75.368v2.75a.465.465,0,0,0,.465.465h1.176a.465.465,0,0,0,.465-.465v-2.75a.465.465,0,0,1,.75-.368l1.036.8a.464.464,0,0,0,.75-.367v-.907a.466.466,0,0,0-.179-.368L74.679,92.9a.464.464,0,0,1-.18-.367V89.453a.465.465,0,0,1,.75-.367l4.341,3.37a.465.465,0,0,0,.751-.367V90.582a.467.467,0,0,0-.18-.367L74.607,85.9a.467.467,0,0,1-.18-.367V76.6l7.738,4.467a.462.462,0,0,1,.228.34l.958,6.965a.464.464,0,0,0,.228.34l1.305.753A.465.465,0,0,0,85.577,89l-.748-5.445a.465.465,0,0,1,.693-.466l2.668,1.54a.467.467,0,0,1,.228.34l.373,2.711a.464.464,0,0,0,.228.34l.786.453a.465.465,0,0,0,.693-.466l-.179-1.3a.466.466,0,0,1,.694-.466l2.382,1.375a.466.466,0,0,0,.635-.17l.213-.369.375-.65A.466.466,0,0,0,94.448,85.793Z"/><path class="d" d="M151.976,175.862l-2.382-1.375a.465.465,0,0,1,.057-.833l1.215-.5a.466.466,0,0,0,.057-.834l-.786-.454a.468.468,0,0,0-.408-.028l-2.535,1.034a.469.469,0,0,1-.408-.028l-2.667-1.541a.464.464,0,0,1,.057-.833l5.089-2.074a.466.466,0,0,0,.057-.834l-1.305-.753a.465.465,0,0,0-.408-.028L141.1,169.44a.469.469,0,0,1-.408-.028l-7.738-4.468,7.738-4.467a.465.465,0,0,1,.408-.028l6.511,2.653a.465.465,0,0,0,.408-.027l1.305-.754a.465.465,0,0,0-.057-.833l-5.089-2.075a.464.464,0,0,1-.057-.833l2.667-1.54a.465.465,0,0,1,.408-.028l2.535,1.033a.465.465,0,0,0,.408-.028l.786-.454a.465.465,0,0,0-.057-.833l-1.215-.495a.466.466,0,0,1-.057-.834l2.382-1.375a.465.465,0,0,0,.171-.635l-.214-.369-.374-.649a.466.466,0,0,0-.636-.171l-2.382,1.375a.465.465,0,0,1-.693-.466l.179-1.3a.466.466,0,0,0-.694-.466l-.785.454a.466.466,0,0,0-.229.339l-.372,2.712a.466.466,0,0,1-.229.339l-2.667,1.54a.466.466,0,0,1-.694-.466l.749-5.445a.465.465,0,0,0-.693-.466l-1.3.753a.468.468,0,0,0-.229.34l-.957,6.966a.465.465,0,0,1-.228.339l-7.738,4.467v-8.935a.464.464,0,0,1,.18-.367l5.554-4.312a.464.464,0,0,0,.179-.367V147.73a.465.465,0,0,0-.75-.367l-4.341,3.37a.464.464,0,0,1-.75-.367v-3.08a.466.466,0,0,1,.179-.368l2.162-1.678a.464.464,0,0,0,.18-.367v-.908a.465.465,0,0,0-.75-.367l-1.036.8a.465.465,0,0,1-.75-.367v-2.751a.465.465,0,0,0-.465-.465h-1.176a.465.465,0,0,0-.465.465v2.751a.466.466,0,0,1-.751.367l-1.035-.8a.465.465,0,0,0-.751.367v.908a.467.467,0,0,0,.18.367l2.162,1.678a.467.467,0,0,1,.18.368v3.08a.465.465,0,0,1-.751.367l-4.341-3.37a.465.465,0,0,0-.75.367v1.507a.462.462,0,0,0,.18.367l5.553,4.312a.464.464,0,0,1,.18.367v8.935l-7.738-4.467a.467.467,0,0,1-.228-.339l-.957-6.966a.469.469,0,0,0-.228-.34l-1.3-.753a.465.465,0,0,0-.693.466l.748,5.445a.465.465,0,0,1-.693.466l-2.668-1.54a.465.465,0,0,1-.228-.339l-.373-2.712a.467.467,0,0,0-.228-.339l-.786-.454a.465.465,0,0,0-.693.466l.178,1.3a.465.465,0,0,1-.693.466L111,152.2a.465.465,0,0,0-.635.171l-.375.649-.213.369a.465.465,0,0,0,.17.635l2.382,1.375a.466.466,0,0,1-.057.834l-1.214.495a.465.465,0,0,0-.057.833l.785.454a.465.465,0,0,0,.408.028l2.535-1.033a.465.465,0,0,1,.408.028l2.668,1.54a.465.465,0,0,1-.057.833l-5.09,2.075a.465.465,0,0,0-.057.833l1.305.754a.465.465,0,0,0,.408.027l6.511-2.653a.465.465,0,0,1,.408.028l7.738,4.467-7.738,4.468a.468.468,0,0,1-.408.028l-6.511-2.654a.465.465,0,0,0-.408.028l-1.305.753a.466.466,0,0,0,.057.834l5.09,2.074a.465.465,0,0,1,.057.833l-2.668,1.541a.468.468,0,0,1-.408.028l-2.535-1.034a.469.469,0,0,0-.408.028l-.785.454a.465.465,0,0,0,.057.834l1.214.5a.465.465,0,0,1,.057.833l-2.382,1.375a.466.466,0,0,0-.17.636l.375.649.213.369a.465.465,0,0,0,.635.17l2.382-1.375a.465.465,0,0,1,.693.466l-.178,1.3a.465.465,0,0,0,.693.466l.786-.454a.465.465,0,0,0,.228-.339l.373-2.711a.465.465,0,0,1,.228-.34l2.668-1.54a.465.465,0,0,1,.693.466l-.748,5.445a.465.465,0,0,0,.693.466l1.3-.753a.467.467,0,0,0,.228-.34l.957-6.965a.467.467,0,0,1,.228-.34l7.738-4.467V175.6a.464.464,0,0,1-.18.367l-5.553,4.312a.464.464,0,0,0-.18.367v1.507a.465.465,0,0,0,.75.367l4.341-3.37a.465.465,0,0,1,.751.367V182.6a.467.467,0,0,1-.18.367l-2.162,1.678a.467.467,0,0,0-.18.368v.907a.466.466,0,0,0,.751.368l1.035-.805a.466.466,0,0,1,.751.368v2.75a.465.465,0,0,0,.465.465h1.176a.465.465,0,0,0,.465-.465v-2.75a.465.465,0,0,1,.75-.368l1.036.805a.465.465,0,0,0,.75-.368v-.907a.464.464,0,0,0-.18-.368l-2.162-1.678a.466.466,0,0,1-.179-.367v-3.081a.465.465,0,0,1,.75-.367l4.341,3.37a.464.464,0,0,0,.75-.367v-1.507a.466.466,0,0,0-.179-.367l-5.554-4.312a.464.464,0,0,1-.18-.367V166.67l7.738,4.467a.465.465,0,0,1,.228.34l.957,6.965a.466.466,0,0,0,.229.34l1.3.753a.465.465,0,0,0,.693-.466l-.749-5.445a.466.466,0,0,1,.694-.466l2.667,1.54a.466.466,0,0,1,.229.34l.372,2.711a.464.464,0,0,0,.229.339l.785.454a.466.466,0,0,0,.694-.466l-.179-1.3a.465.465,0,0,1,.693-.466l2.382,1.375a.466.466,0,0,0,.636-.17l.213-.369.375-.649A.466.466,0,0,0,151.976,175.862Z"/><path class="d" d="M490.616,72.166l-2.382-1.375a.466.466,0,0,1,.057-.834l1.214-.5a.465.465,0,0,0,.057-.833l-.786-.454a.468.468,0,0,0-.408-.028l-2.534,1.033a.462.462,0,0,1-.408-.028l-2.668-1.54a.465.465,0,0,1,.057-.833L487.9,64.7a.465.465,0,0,0,.057-.833l-1.3-.753a.462.462,0,0,0-.408-.028l-6.511,2.653a.465.465,0,0,1-.408-.027l-7.738-4.468,7.738-4.467a.465.465,0,0,1,.408-.028l6.511,2.653a.462.462,0,0,0,.408-.028l1.3-.753a.465.465,0,0,0-.057-.833l-5.09-2.075a.465.465,0,0,1-.057-.833l2.668-1.54a.462.462,0,0,1,.408-.028l2.534,1.033a.465.465,0,0,0,.408-.028l.786-.454a.465.465,0,0,0-.057-.833l-1.214-.495a.466.466,0,0,1-.057-.834l2.382-1.375a.465.465,0,0,0,.17-.635l-.213-.369-.375-.65a.465.465,0,0,0-.635-.17l-2.382,1.375a.465.465,0,0,1-.693-.466l.178-1.3a.465.465,0,0,0-.693-.466l-.786.454a.464.464,0,0,0-.228.339l-.373,2.711a.465.465,0,0,1-.228.34l-2.668,1.54a.465.465,0,0,1-.693-.466l.748-5.445a.465.465,0,0,0-.693-.466l-1.3.753a.466.466,0,0,0-.228.34l-.957,6.965a.466.466,0,0,1-.229.34L470.6,59.522V50.587a.466.466,0,0,1,.179-.367l5.554-4.312a.462.462,0,0,0,.18-.367V44.034a.465.465,0,0,0-.75-.367l-4.342,3.37a.465.465,0,0,1-.75-.367V43.59a.464.464,0,0,1,.18-.368l2.162-1.678a.467.467,0,0,0,.18-.368v-.907a.465.465,0,0,0-.751-.367l-1.035.8a.466.466,0,0,1-.751-.368v-2.75a.465.465,0,0,0-.465-.465h-1.176a.465.465,0,0,0-.465.465v2.75a.465.465,0,0,1-.75.368l-1.036-.8a.464.464,0,0,0-.75.367v.907a.464.464,0,0,0,.18.368l2.161,1.678a.464.464,0,0,1,.18.368v3.08a.465.465,0,0,1-.75.367l-4.341-3.37a.465.465,0,0,0-.751.367v1.507a.465.465,0,0,0,.18.367l5.554,4.312a.467.467,0,0,1,.18.367v8.935l-7.738-4.467a.465.465,0,0,1-.228-.34l-.958-6.965a.464.464,0,0,0-.228-.34l-1.3-.753a.465.465,0,0,0-.693.466l.748,5.445a.465.465,0,0,1-.693.466l-2.668-1.54a.467.467,0,0,1-.228-.34l-.372-2.711a.466.466,0,0,0-.229-.339l-.785-.454a.466.466,0,0,0-.694.466l.179,1.3a.466.466,0,0,1-.694.466l-2.381-1.375a.467.467,0,0,0-.636.17l-.375.65-.213.369a.465.465,0,0,0,.171.635l2.381,1.375a.465.465,0,0,1-.057.834l-1.214.495a.465.465,0,0,0-.057.833l.786.454a.465.465,0,0,0,.408.028l2.534-1.033a.462.462,0,0,1,.408.028l2.668,1.54a.465.465,0,0,1-.057.833l-5.089,2.075a.464.464,0,0,0-.057.833l1.3.753a.462.462,0,0,0,.408.028l6.511-2.653a.467.467,0,0,1,.409.028l7.737,4.467-7.737,4.468a.467.467,0,0,1-.409.027l-6.511-2.653a.462.462,0,0,0-.408.028l-1.3.753a.464.464,0,0,0,.057.833l5.089,2.075a.465.465,0,0,1,.057.833l-2.668,1.54a.462.462,0,0,1-.408.028l-2.534-1.033a.468.468,0,0,0-.408.028l-.786.454a.465.465,0,0,0,.057.833l1.214.5a.465.465,0,0,1,.057.834l-2.381,1.375a.465.465,0,0,0-.171.635l.375.65.213.369a.467.467,0,0,0,.636.17l2.381-1.375a.466.466,0,0,1,.694.466l-.179,1.3a.466.466,0,0,0,.694.466l.785-.454a.464.464,0,0,0,.229-.339l.372-2.711a.467.467,0,0,1,.228-.34l2.668-1.54a.465.465,0,0,1,.693.466l-.748,5.445a.465.465,0,0,0,.693.466l1.3-.753a.462.462,0,0,0,.228-.34l.958-6.965a.465.465,0,0,1,.228-.34l7.738-4.467v8.935a.467.467,0,0,1-.18.367l-5.554,4.312a.467.467,0,0,0-.18.367v1.507a.465.465,0,0,0,.751.367l4.341-3.37a.465.465,0,0,1,.75.367v3.081a.464.464,0,0,1-.18.367l-2.161,1.678a.464.464,0,0,0-.18.368v.907a.464.464,0,0,0,.75.367l1.036-.8a.465.465,0,0,1,.75.368v2.75a.465.465,0,0,0,.465.465h1.176a.465.465,0,0,0,.465-.465v-2.75a.466.466,0,0,1,.751-.368l1.035.8a.465.465,0,0,0,.751-.367V81.32a.467.467,0,0,0-.18-.368l-2.162-1.678a.464.464,0,0,1-.18-.367V75.826a.465.465,0,0,1,.75-.367l4.342,3.37a.465.465,0,0,0,.75-.367V76.955a.464.464,0,0,0-.18-.367l-5.554-4.312a.466.466,0,0,1-.179-.367V62.974l7.737,4.467a.466.466,0,0,1,.229.34l.957,6.965a.464.464,0,0,0,.228.34l1.3.753a.465.465,0,0,0,.693-.466L481,69.928a.465.465,0,0,1,.693-.466L484.358,71a.465.465,0,0,1,.228.34l.373,2.711a.463.463,0,0,0,.228.339l.786.454a.465.465,0,0,0,.693-.466l-.178-1.3a.465.465,0,0,1,.693-.466l2.382,1.375a.465.465,0,0,0,.635-.17l.213-.369.375-.65A.465.465,0,0,0,490.616,72.166Z"/><path class="d" d="M448.117,211.429l-2.382-1.375a.465.465,0,0,1,.057-.833l1.215-.495a.466.466,0,0,0,.057-.834l-.786-.453a.462.462,0,0,0-.408-.028l-2.535,1.033a.465.465,0,0,1-.408-.028l-2.667-1.54a.465.465,0,0,1,.057-.834l5.089-2.074a.465.465,0,0,0,.057-.834l-1.305-.753a.465.465,0,0,0-.408-.028l-6.511,2.654a.465.465,0,0,1-.408-.028l-7.738-4.468,7.738-4.467a.465.465,0,0,1,.408-.028l6.511,2.654a.465.465,0,0,0,.408-.028l1.305-.754a.465.465,0,0,0-.057-.833l-5.089-2.074a.465.465,0,0,1-.057-.834l2.667-1.54a.465.465,0,0,1,.408-.028l2.535,1.033a.465.465,0,0,0,.408-.028l.786-.454a.465.465,0,0,0-.057-.833l-1.215-.495a.466.466,0,0,1-.057-.834l2.382-1.375a.465.465,0,0,0,.171-.635l-.214-.369-.374-.649a.466.466,0,0,0-.636-.171l-2.382,1.376a.465.465,0,0,1-.693-.467l.179-1.3a.466.466,0,0,0-.694-.466l-.785.454a.466.466,0,0,0-.229.339l-.372,2.712a.466.466,0,0,1-.229.339l-2.667,1.54a.465.465,0,0,1-.694-.466l.749-5.445a.465.465,0,0,0-.693-.466l-1.3.754a.464.464,0,0,0-.229.339l-.957,6.966a.464.464,0,0,1-.228.339l-7.738,4.467v-8.934a.464.464,0,0,1,.18-.368l5.554-4.312a.464.464,0,0,0,.179-.367V183.3a.465.465,0,0,0-.75-.367l-4.341,3.371a.465.465,0,0,1-.75-.368v-3.08a.468.468,0,0,1,.179-.368l2.162-1.678a.464.464,0,0,0,.18-.367v-.908a.465.465,0,0,0-.75-.367l-1.036.8a.465.465,0,0,1-.75-.367v-2.751a.466.466,0,0,0-.465-.465h-1.176a.465.465,0,0,0-.465.465V179.6a.465.465,0,0,1-.751.367l-1.035-.8a.465.465,0,0,0-.751.367v.908a.467.467,0,0,0,.18.367l2.162,1.678a.469.469,0,0,1,.18.368v3.08a.466.466,0,0,1-.751.368l-4.341-3.371a.465.465,0,0,0-.75.367V184.8a.462.462,0,0,0,.18.367l5.553,4.312a.464.464,0,0,1,.18.368v8.934l-7.738-4.467a.467.467,0,0,1-.228-.339l-.957-6.966a.465.465,0,0,0-.228-.339l-1.3-.754a.465.465,0,0,0-.693.466l.748,5.445a.464.464,0,0,1-.693.466l-2.668-1.54a.464.464,0,0,1-.228-.339l-.373-2.712a.467.467,0,0,0-.228-.339l-.786-.454a.465.465,0,0,0-.693.466l.178,1.3a.465.465,0,0,1-.693.467l-2.382-1.376a.465.465,0,0,0-.635.171l-.375.649-.213.369a.465.465,0,0,0,.17.635l2.382,1.375a.466.466,0,0,1-.057.834l-1.214.495a.465.465,0,0,0-.057.833l.785.454a.465.465,0,0,0,.408.028l2.535-1.033a.465.465,0,0,1,.408.028l2.668,1.54a.466.466,0,0,1-.057.834l-5.09,2.074a.465.465,0,0,0-.057.833l1.3.754a.465.465,0,0,0,.408.028l6.511-2.654a.465.465,0,0,1,.408.028l7.738,4.467-7.738,4.468a.465.465,0,0,1-.408.028l-6.511-2.654a.465.465,0,0,0-.408.028l-1.3.753a.466.466,0,0,0,.057.834l5.09,2.074a.466.466,0,0,1,.057.834l-2.668,1.54a.465.465,0,0,1-.408.028l-2.535-1.033a.462.462,0,0,0-.408.028l-.785.453a.465.465,0,0,0,.057.834l1.214.495a.465.465,0,0,1,.057.833l-2.382,1.375a.466.466,0,0,0-.17.636l.375.649.213.369a.465.465,0,0,0,.635.17l2.382-1.375a.465.465,0,0,1,.693.466l-.178,1.3a.465.465,0,0,0,.693.466l.786-.453a.469.469,0,0,0,.228-.34l.373-2.711a.466.466,0,0,1,.228-.34l2.668-1.54a.465.465,0,0,1,.693.466l-.748,5.445a.464.464,0,0,0,.693.466l1.3-.753a.467.467,0,0,0,.228-.339l.957-6.966a.469.469,0,0,1,.228-.34l7.738-4.467v8.935a.462.462,0,0,1-.18.367l-5.553,4.312a.464.464,0,0,0-.18.367v1.507a.465.465,0,0,0,.75.368l4.341-3.371a.466.466,0,0,1,.751.368v3.08a.465.465,0,0,1-.18.367l-2.162,1.679a.465.465,0,0,0-.18.367v.907a.466.466,0,0,0,.751.368l1.035-.805a.466.466,0,0,1,.751.368v2.75a.465.465,0,0,0,.465.465h1.176a.465.465,0,0,0,.465-.465v-2.75a.465.465,0,0,1,.75-.368l1.036.805a.465.465,0,0,0,.75-.368v-.907a.462.462,0,0,0-.18-.367l-2.162-1.679a.464.464,0,0,1-.179-.367v-3.08a.465.465,0,0,1,.75-.368l4.341,3.371a.465.465,0,0,0,.75-.368v-1.507a.466.466,0,0,0-.179-.367l-5.554-4.312a.462.462,0,0,1-.18-.367v-8.935l7.738,4.467a.466.466,0,0,1,.228.34l.957,6.966a.466.466,0,0,0,.229.339l1.3.753a.465.465,0,0,0,.693-.466l-.749-5.445a.466.466,0,0,1,.694-.466l2.667,1.54a.468.468,0,0,1,.229.34l.372,2.711a.468.468,0,0,0,.229.34l.785.453a.466.466,0,0,0,.694-.466l-.179-1.3a.465.465,0,0,1,.693-.466l2.382,1.375a.466.466,0,0,0,.636-.17l.213-.369.375-.649A.466.466,0,0,0,448.117,211.429Z" transform="translate(-194 -81)"/><path class="d" d="M313.275,48.041l-2.382-1.375a.466.466,0,0,1,.057-.834l1.214-.495a.464.464,0,0,0,.057-.833l-.785-.454a.469.469,0,0,0-.408-.028l-2.535,1.033a.462.462,0,0,1-.408-.028l-2.668-1.54a.465.465,0,0,1,.057-.833l5.09-2.075a.465.465,0,0,0,.057-.833l-1.3-.753a.462.462,0,0,0-.408-.028L302.4,41.618a.465.465,0,0,1-.408-.027l-7.738-4.468,7.738-4.467a.465.465,0,0,1,.408-.028l6.511,2.653a.462.462,0,0,0,.408-.028l1.3-.753a.465.465,0,0,0-.057-.833l-5.09-2.075a.465.465,0,0,1-.057-.833l2.668-1.54a.462.462,0,0,1,.408-.028l2.535,1.033a.465.465,0,0,0,.408-.028l.785-.454a.464.464,0,0,0-.057-.833l-1.214-.5a.466.466,0,0,1-.057-.834l2.382-1.375a.465.465,0,0,0,.17-.635l-.213-.369-.375-.65a.465.465,0,0,0-.635-.17l-2.382,1.375a.465.465,0,0,1-.693-.466l.178-1.3a.465.465,0,0,0-.693-.466l-.786.454a.467.467,0,0,0-.228.339l-.373,2.711a.462.462,0,0,1-.228.34l-2.668,1.54a.465.465,0,0,1-.693-.466L304.4,23a.465.465,0,0,0-.693-.466l-1.3.753a.469.469,0,0,0-.228.34l-.957,6.965a.467.467,0,0,1-.228.34L293.255,35.4V26.462a.464.464,0,0,1,.18-.367l5.553-4.312a.462.462,0,0,0,.18-.367V19.909a.465.465,0,0,0-.75-.367l-4.341,3.37a.465.465,0,0,1-.751-.367v-3.08a.467.467,0,0,1,.18-.368l2.162-1.678a.467.467,0,0,0,.18-.368v-.907a.465.465,0,0,0-.751-.367l-1.035.8a.466.466,0,0,1-.751-.368v-2.75a.465.465,0,0,0-.465-.465H291.67a.465.465,0,0,0-.465.465v2.75a.465.465,0,0,1-.75.368l-1.036-.8a.465.465,0,0,0-.75.367v.907a.464.464,0,0,0,.18.368l2.162,1.678a.466.466,0,0,1,.179.368v3.08a.464.464,0,0,1-.75.367l-4.341-3.37a.465.465,0,0,0-.75.367v1.507a.464.464,0,0,0,.179.367l5.554,4.312a.464.464,0,0,1,.18.367V35.4l-7.738-4.467a.465.465,0,0,1-.228-.34l-.957-6.965a.468.468,0,0,0-.229-.34l-1.3-.753a.465.465,0,0,0-.693.466l.749,5.445a.466.466,0,0,1-.694.466l-2.667-1.54a.466.466,0,0,1-.229-.34l-.372-2.711a.467.467,0,0,0-.228-.339l-.786-.454a.466.466,0,0,0-.694.466l.179,1.3a.465.465,0,0,1-.693.466L272.3,24.381a.467.467,0,0,0-.636.17l-.374.65-.213.369a.464.464,0,0,0,.17.635l2.382,1.375a.466.466,0,0,1-.057.834l-1.215.5a.465.465,0,0,0-.057.833l.786.454a.465.465,0,0,0,.408.028l2.535-1.033a.462.462,0,0,1,.408.028l2.667,1.54a.464.464,0,0,1-.057.833l-5.089,2.075a.465.465,0,0,0-.057.833l1.3.753a.462.462,0,0,0,.408.028l6.511-2.653a.465.465,0,0,1,.408.028l7.738,4.467-7.738,4.468a.465.465,0,0,1-.408.027l-6.511-2.653a.462.462,0,0,0-.408.028l-1.3.753a.465.465,0,0,0,.057.833l5.089,2.075a.464.464,0,0,1,.057.833l-2.667,1.54a.462.462,0,0,1-.408.028l-2.535-1.033a.468.468,0,0,0-.408.028l-.786.454a.465.465,0,0,0,.057.833l1.215.495a.466.466,0,0,1,.057.834l-2.382,1.375a.464.464,0,0,0-.17.635l.374.65.213.369a.467.467,0,0,0,.636.17l2.382-1.375a.465.465,0,0,1,.693.466l-.179,1.3a.466.466,0,0,0,.694.466l.786-.454a.465.465,0,0,0,.228-.339l.372-2.711a.466.466,0,0,1,.229-.34l2.667-1.54a.466.466,0,0,1,.694.466l-.749,5.445a.465.465,0,0,0,.693.466l1.3-.753a.466.466,0,0,0,.229-.34l.957-6.965a.465.465,0,0,1,.228-.34l7.738-4.467v8.935a.464.464,0,0,1-.18.367l-5.554,4.312a.466.466,0,0,0-.179.367v1.507a.464.464,0,0,0,.75.367l4.341-3.37a.465.465,0,0,1,.75.367v3.081a.466.466,0,0,1-.179.367l-2.162,1.678a.464.464,0,0,0-.18.368V58.1a.465.465,0,0,0,.75.367l1.036-.8a.465.465,0,0,1,.75.368v2.75a.465.465,0,0,0,.465.465h1.176a.465.465,0,0,0,.465-.465v-2.75a.466.466,0,0,1,.751-.368l1.035.8a.465.465,0,0,0,.751-.367v-.907a.467.467,0,0,0-.18-.368l-2.162-1.678a.467.467,0,0,1-.18-.367V51.7a.465.465,0,0,1,.751-.367l4.341,3.37a.465.465,0,0,0,.75-.367V52.83a.464.464,0,0,0-.18-.367l-5.553-4.312a.464.464,0,0,1-.18-.367V38.849l7.738,4.467a.467.467,0,0,1,.228.34l.957,6.965a.467.467,0,0,0,.228.34l1.3.753a.465.465,0,0,0,.693-.466l-.748-5.445a.465.465,0,0,1,.693-.466l2.668,1.54a.462.462,0,0,1,.228.34l.373,2.711a.465.465,0,0,0,.228.339l.786.454a.465.465,0,0,0,.693-.466l-.178-1.3a.465.465,0,0,1,.693-.466l2.382,1.375a.465.465,0,0,0,.635-.17l.213-.369.375-.65A.465.465,0,0,0,313.275,48.041Z"/><path class="d" d="M63.034,269.761l-2.382-1.376a.465.465,0,0,1,.057-.833l1.214-.495a.465.465,0,0,0,.057-.833l-.785-.454a.467.467,0,0,0-.409-.028l-2.534,1.033a.465.465,0,0,1-.408-.028l-2.668-1.54a.466.466,0,0,1,.057-.834l5.09-2.074a.465.465,0,0,0,.057-.833l-1.305-.754a.465.465,0,0,0-.408-.028l-6.511,2.654a.465.465,0,0,1-.408-.028l-7.738-4.467,7.738-4.468a.465.465,0,0,1,.408-.028L58.667,257a.465.465,0,0,0,.408-.028l1.305-.753a.466.466,0,0,0-.057-.834l-5.09-2.074a.466.466,0,0,1-.057-.834l2.668-1.54a.465.465,0,0,1,.408-.028l2.534,1.033a.467.467,0,0,0,.409-.028l.785-.453a.465.465,0,0,0-.057-.834l-1.214-.5a.465.465,0,0,1-.057-.833l2.382-1.375a.466.466,0,0,0,.17-.636l-.213-.369-.375-.649a.464.464,0,0,0-.635-.17L59.6,247.476a.465.465,0,0,1-.693-.466l.178-1.3a.465.465,0,0,0-.693-.467l-.786.454a.465.465,0,0,0-.228.34L57,248.749a.463.463,0,0,1-.228.339l-2.668,1.541a.465.465,0,0,1-.693-.466l.748-5.445a.464.464,0,0,0-.693-.466l-1.305.753a.467.467,0,0,0-.228.339l-.957,6.966a.466.466,0,0,1-.229.339l-7.737,4.468v-8.935a.464.464,0,0,1,.179-.367l5.554-4.312a.464.464,0,0,0,.18-.368v-1.506a.465.465,0,0,0-.75-.368l-4.342,3.371a.465.465,0,0,1-.75-.368v-3.08a.465.465,0,0,1,.18-.367l2.162-1.679a.467.467,0,0,0,.18-.367v-.907a.466.466,0,0,0-.751-.368l-1.035.8a.465.465,0,0,1-.751-.367v-2.75a.466.466,0,0,0-.465-.466H41.429a.466.466,0,0,0-.465.466v2.75a.465.465,0,0,1-.75.367l-1.036-.8a.465.465,0,0,0-.75.368v.907a.464.464,0,0,0,.18.367l2.161,1.679a.462.462,0,0,1,.18.367v3.08a.465.465,0,0,1-.75.368l-4.341-3.371a.466.466,0,0,0-.751.368v1.506a.467.467,0,0,0,.18.368l5.554,4.312a.465.465,0,0,1,.18.367v8.935l-7.738-4.468a.465.465,0,0,1-.228-.339l-.958-6.966a.462.462,0,0,0-.228-.339l-1.305-.753a.464.464,0,0,0-.693.466l.748,5.445a.465.465,0,0,1-.693.466l-2.668-1.541a.465.465,0,0,1-.228-.339l-.372-2.711a.466.466,0,0,0-.229-.34l-.785-.454a.466.466,0,0,0-.694.467l.179,1.3a.465.465,0,0,1-.693.466L22.054,246.1a.465.465,0,0,0-.636.17l-.375.649-.213.369a.466.466,0,0,0,.171.636l2.381,1.375a.464.464,0,0,1-.057.833l-1.214.5a.466.466,0,0,0-.057.834l.786.453a.465.465,0,0,0,.408.028l2.534-1.033a.467.467,0,0,1,.409.028l2.667,1.54a.466.466,0,0,1-.057.834l-5.089,2.074a.465.465,0,0,0-.057.834l1.3.753a.467.467,0,0,0,.409.028l6.511-2.654a.465.465,0,0,1,.408.028l7.737,4.468-7.737,4.467a.465.465,0,0,1-.408.028l-6.511-2.654a.467.467,0,0,0-.409.028l-1.3.754a.465.465,0,0,0,.057.833l5.089,2.074a.466.466,0,0,1,.057.834l-2.667,1.54a.467.467,0,0,1-.409.028l-2.534-1.033a.465.465,0,0,0-.408.028l-.786.454a.465.465,0,0,0,.057.833l1.214.495a.464.464,0,0,1,.057.833L21,269.761a.465.465,0,0,0-.171.635l.375.649.213.369a.466.466,0,0,0,.636.171l2.382-1.376a.465.465,0,0,1,.693.466l-.179,1.3a.466.466,0,0,0,.694.466l.785-.454a.466.466,0,0,0,.229-.34l.372-2.711a.465.465,0,0,1,.228-.339l2.668-1.54a.464.464,0,0,1,.693.466l-.748,5.444a.465.465,0,0,0,.693.467l1.305-.754a.462.462,0,0,0,.228-.339l.958-6.966a.465.465,0,0,1,.228-.339l7.738-4.468V269.5a.469.469,0,0,1-.18.368l-5.554,4.311a.469.469,0,0,0-.18.368v1.507a.466.466,0,0,0,.751.367l4.341-3.371a.465.465,0,0,1,.75.368v3.08a.462.462,0,0,1-.18.367l-2.161,1.679a.464.464,0,0,0-.18.367v.908a.465.465,0,0,0,.75.367l1.036-.8a.465.465,0,0,1,.75.367V282.5a.465.465,0,0,0,.465.465H42.6a.465.465,0,0,0,.465-.465v-2.751a.465.465,0,0,1,.751-.367l1.035.8a.466.466,0,0,0,.751-.367v-.908a.467.467,0,0,0-.18-.367l-2.162-1.679a.465.465,0,0,1-.18-.367v-3.08a.465.465,0,0,1,.75-.368l4.342,3.371a.465.465,0,0,0,.75-.367V274.55a.466.466,0,0,0-.18-.368l-5.554-4.311a.468.468,0,0,1-.179-.368v-8.935l7.737,4.468a.466.466,0,0,1,.229.339l.957,6.966a.467.467,0,0,0,.228.339l1.305.754a.465.465,0,0,0,.693-.467l-.748-5.444a.464.464,0,0,1,.693-.466l2.668,1.54a.463.463,0,0,1,.228.339l.373,2.711a.464.464,0,0,0,.228.34l.786.454a.465.465,0,0,0,.693-.466l-.178-1.3a.465.465,0,0,1,.693-.466l2.382,1.376a.465.465,0,0,0,.635-.171l.213-.369.375-.649A.464.464,0,0,0,63.034,269.761Z"/><path class="d" d="M62.333,167.076A5.076,5.076,0,1,1,57.258,162,5.075,5.075,0,0,1,62.333,167.076Z"/><circle class="d" cx="5.076" cy="5.076" r="5.076" transform="translate(156.924 83.924)"/><path class="d" d="M383.756,37.123a5.076,5.076,0,1,1-5.076-5.076A5.077,5.077,0,0,1,383.756,37.123Z"/><circle class="d" cx="5.076" cy="5.076" r="5.076" transform="translate(464.523 244.924)"/><path class="d" d="M388.831,262.639a5.076,5.076,0,1,1-5.075-5.075A5.075,5.075,0,0,1,388.831,262.639Z" transform="translate(-122 -69)"/><path class="d" d="M196.742,28a5.076,5.076,0,1,1-5.075-5.076A5.076,5.076,0,0,1,196.742,28Z"/><path class="d" d="M447.492,132.973a5.076,5.076,0,1,1-5.076-5.076A5.076,5.076,0,0,1,447.492,132.973Z"/><path class="d" d="M341.076,101.333A5.076,5.076,0,1,1,336,96.258,5.076,5.076,0,0,1,341.076,101.333Z"/><path class="d" d="M33.742,28a5.076,5.076,0,1,1-5.075-5.076A5.076,5.076,0,0,1,33.742,28Z"/><path class="d" d="M139.52,224.874a5.076,5.076,0,1,1-5.076-5.075A5.075,5.075,0,0,1,139.52,224.874Z"/></g><g transform="translate(-20.768 277.002)"><path class="d" d="M94.448,85.793l-2.382-1.375a.465.465,0,0,1,.057-.834l1.214-.494a.466.466,0,0,0,.057-.834l-.786-.454a.465.465,0,0,0-.408-.027l-2.534,1.032a.462.462,0,0,1-.408-.028l-2.668-1.54a.465.465,0,0,1,.057-.833l5.09-2.074a.466.466,0,0,0,.057-.834l-1.305-.753a.465.465,0,0,0-.408-.028L83.57,79.37a.462.462,0,0,1-.408-.028l-7.738-4.467,7.738-4.467a.462.462,0,0,1,.408-.028l6.511,2.653a.465.465,0,0,0,.408-.027l1.305-.754a.465.465,0,0,0-.057-.833l-5.09-2.075a.465.465,0,0,1-.057-.833l2.668-1.54a.465.465,0,0,1,.408-.028L92.2,67.976a.465.465,0,0,0,.408-.028l.786-.454a.465.465,0,0,0-.057-.833l-1.214-.5a.465.465,0,0,1-.057-.834l2.382-1.375a.465.465,0,0,0,.17-.635l-.213-.369-.375-.65a.466.466,0,0,0-.635-.17l-2.382,1.375a.465.465,0,0,1-.694-.466l.179-1.3a.465.465,0,0,0-.693-.466l-.786.454a.462.462,0,0,0-.228.339l-.373,2.712a.467.467,0,0,1-.228.339l-2.668,1.54a.465.465,0,0,1-.693-.466l.748-5.445a.465.465,0,0,0-.693-.466l-1.305.754a.463.463,0,0,0-.228.339l-.958,6.965a.462.462,0,0,1-.228.34l-7.738,4.467V64.215a.467.467,0,0,1,.18-.368l5.554-4.312a.467.467,0,0,0,.18-.367V57.661a.465.465,0,0,0-.751-.367l-4.341,3.37a.465.465,0,0,1-.75-.367v-3.08a.464.464,0,0,1,.18-.368l2.162-1.678a.466.466,0,0,0,.179-.368V53.9a.465.465,0,0,0-.75-.367l-1.036.8a.465.465,0,0,1-.75-.367V51.215a.465.465,0,0,0-.465-.465H72.843a.465.465,0,0,0-.465.465v2.751a.465.465,0,0,1-.75.367l-1.036-.8a.465.465,0,0,0-.75.367V54.8a.466.466,0,0,0,.179.368l2.162,1.678a.464.464,0,0,1,.18.368V60.3a.465.465,0,0,1-.75.367l-4.341-3.37a.465.465,0,0,0-.751.367v1.507a.467.467,0,0,0,.18.367l5.554,4.312a.467.467,0,0,1,.18.368v8.934L64.7,68.682a.462.462,0,0,1-.228-.34l-.958-6.965a.463.463,0,0,0-.228-.339l-1.305-.754a.465.465,0,0,0-.693.466l.748,5.445a.465.465,0,0,1-.693.466l-2.668-1.54a.467.467,0,0,1-.228-.339l-.373-2.712a.462.462,0,0,0-.228-.339l-.786-.454a.465.465,0,0,0-.693.466l.179,1.3a.465.465,0,0,1-.694.466l-2.382-1.375a.466.466,0,0,0-.635.17l-.375.65-.213.369a.465.465,0,0,0,.17.635L54.8,65.332a.466.466,0,0,1-.057.834l-1.214.5a.465.465,0,0,0-.057.833l.786.454a.465.465,0,0,0,.408.028L57.2,66.943a.465.465,0,0,1,.408.028l2.668,1.54a.465.465,0,0,1-.057.833l-5.09,2.075a.465.465,0,0,0-.057.833l1.305.754a.465.465,0,0,0,.408.027l6.511-2.653a.462.462,0,0,1,.408.028l7.738,4.467L63.7,79.342a.462.462,0,0,1-.408.028l-6.511-2.653a.465.465,0,0,0-.408.028l-1.305.753a.466.466,0,0,0,.057.834l5.09,2.074a.465.465,0,0,1,.057.833L57.6,82.779a.462.462,0,0,1-.408.028l-2.534-1.032a.465.465,0,0,0-.408.027l-.786.454a.466.466,0,0,0,.057.834l1.214.494a.466.466,0,0,1,.057.834l-2.382,1.375a.466.466,0,0,0-.17.635l.375.65.213.369a.466.466,0,0,0,.635.17l2.382-1.375a.466.466,0,0,1,.694.466l-.179,1.3a.465.465,0,0,0,.693.466l.786-.453a.464.464,0,0,0,.228-.34l.373-2.711a.467.467,0,0,1,.228-.34l2.668-1.54a.465.465,0,0,1,.693.466L61.285,89a.465.465,0,0,0,.693.466l1.305-.753a.464.464,0,0,0,.228-.34l.958-6.965a.462.462,0,0,1,.228-.34L72.435,76.6v8.935a.467.467,0,0,1-.18.367L66.7,90.215a.467.467,0,0,0-.18.367v1.507a.465.465,0,0,0,.751.367l4.341-3.37a.465.465,0,0,1,.75.367v3.081a.464.464,0,0,1-.18.367l-2.162,1.678a.466.466,0,0,0-.179.368v.907a.464.464,0,0,0,.75.367l1.036-.8a.465.465,0,0,1,.75.368v2.75a.465.465,0,0,0,.465.465h1.176a.465.465,0,0,0,.465-.465v-2.75a.465.465,0,0,1,.75-.368l1.036.8a.464.464,0,0,0,.75-.367v-.907a.466.466,0,0,0-.179-.368L74.679,92.9a.464.464,0,0,1-.18-.367V89.453a.465.465,0,0,1,.75-.367l4.341,3.37a.465.465,0,0,0,.751-.367V90.582a.467.467,0,0,0-.18-.367L74.607,85.9a.467.467,0,0,1-.18-.367V76.6l7.738,4.467a.462.462,0,0,1,.228.34l.958,6.965a.464.464,0,0,0,.228.34l1.305.753A.465.465,0,0,0,85.577,89l-.748-5.445a.465.465,0,0,1,.693-.466l2.668,1.54a.467.467,0,0,1,.228.34l.373,2.711a.464.464,0,0,0,.228.34l.786.453a.465.465,0,0,0,.693-.466l-.179-1.3a.466.466,0,0,1,.694-.466l2.382,1.375a.466.466,0,0,0,.635-.17l.213-.369.375-.65A.466.466,0,0,0,94.448,85.793Z"/><path class="d" d="M151.976,175.862l-2.382-1.375a.465.465,0,0,1,.057-.833l1.215-.5a.466.466,0,0,0,.057-.834l-.786-.454a.468.468,0,0,0-.408-.028l-2.535,1.034a.469.469,0,0,1-.408-.028l-2.667-1.541a.464.464,0,0,1,.057-.833l5.089-2.074a.466.466,0,0,0,.057-.834l-1.305-.753a.465.465,0,0,0-.408-.028L141.1,169.44a.469.469,0,0,1-.408-.028l-7.738-4.468,7.738-4.467a.465.465,0,0,1,.408-.028l6.511,2.653a.465.465,0,0,0,.408-.027l1.305-.754a.465.465,0,0,0-.057-.833l-5.089-2.075a.464.464,0,0,1-.057-.833l2.667-1.54a.465.465,0,0,1,.408-.028l2.535,1.033a.465.465,0,0,0,.408-.028l.786-.454a.465.465,0,0,0-.057-.833l-1.215-.495a.466.466,0,0,1-.057-.834l2.382-1.375a.465.465,0,0,0,.171-.635l-.214-.369-.374-.649a.466.466,0,0,0-.636-.171l-2.382,1.375a.465.465,0,0,1-.693-.466l.179-1.3a.466.466,0,0,0-.694-.466l-.785.454a.466.466,0,0,0-.229.339l-.372,2.712a.466.466,0,0,1-.229.339l-2.667,1.54a.466.466,0,0,1-.694-.466l.749-5.445a.465.465,0,0,0-.693-.466l-1.3.753a.468.468,0,0,0-.229.34l-.957,6.966a.465.465,0,0,1-.228.339l-7.738,4.467v-8.935a.464.464,0,0,1,.18-.367l5.554-4.312a.464.464,0,0,0,.179-.367V147.73a.465.465,0,0,0-.75-.367l-4.341,3.37a.464.464,0,0,1-.75-.367v-3.08a.466.466,0,0,1,.179-.368l2.162-1.678a.464.464,0,0,0,.18-.367v-.908a.465.465,0,0,0-.75-.367l-1.036.8a.465.465,0,0,1-.75-.367v-2.751a.465.465,0,0,0-.465-.465h-1.176a.465.465,0,0,0-.465.465v2.751a.466.466,0,0,1-.751.367l-1.035-.8a.465.465,0,0,0-.751.367v.908a.467.467,0,0,0,.18.367l2.162,1.678a.467.467,0,0,1,.18.368v3.08a.465.465,0,0,1-.751.367l-4.341-3.37a.465.465,0,0,0-.75.367v1.507a.462.462,0,0,0,.18.367l5.553,4.312a.464.464,0,0,1,.18.367v8.935l-7.738-4.467a.467.467,0,0,1-.228-.339l-.957-6.966a.469.469,0,0,0-.228-.34l-1.3-.753a.465.465,0,0,0-.693.466l.748,5.445a.465.465,0,0,1-.693.466l-2.668-1.54a.465.465,0,0,1-.228-.339l-.373-2.712a.467.467,0,0,0-.228-.339l-.786-.454a.465.465,0,0,0-.693.466l.178,1.3a.465.465,0,0,1-.693.466L111,152.2a.465.465,0,0,0-.635.171l-.375.649-.213.369a.465.465,0,0,0,.17.635l2.382,1.375a.466.466,0,0,1-.057.834l-1.214.495a.465.465,0,0,0-.057.833l.785.454a.465.465,0,0,0,.408.028l2.535-1.033a.465.465,0,0,1,.408.028l2.668,1.54a.465.465,0,0,1-.057.833l-5.09,2.075a.465.465,0,0,0-.057.833l1.305.754a.465.465,0,0,0,.408.027l6.511-2.653a.465.465,0,0,1,.408.028l7.738,4.467-7.738,4.468a.468.468,0,0,1-.408.028l-6.511-2.654a.465.465,0,0,0-.408.028l-1.305.753a.466.466,0,0,0,.057.834l5.09,2.074a.465.465,0,0,1,.057.833l-2.668,1.541a.468.468,0,0,1-.408.028l-2.535-1.034a.469.469,0,0,0-.408.028l-.785.454a.465.465,0,0,0,.057.834l1.214.5a.465.465,0,0,1,.057.833l-2.382,1.375a.466.466,0,0,0-.17.636l.375.649.213.369a.465.465,0,0,0,.635.17l2.382-1.375a.465.465,0,0,1,.693.466l-.178,1.3a.465.465,0,0,0,.693.466l.786-.454a.465.465,0,0,0,.228-.339l.373-2.711a.465.465,0,0,1,.228-.34l2.668-1.54a.465.465,0,0,1,.693.466l-.748,5.445a.465.465,0,0,0,.693.466l1.3-.753a.467.467,0,0,0,.228-.34l.957-6.965a.467.467,0,0,1,.228-.34l7.738-4.467V175.6a.464.464,0,0,1-.18.367l-5.553,4.312a.464.464,0,0,0-.18.367v1.507a.465.465,0,0,0,.75.367l4.341-3.37a.465.465,0,0,1,.751.367V182.6a.467.467,0,0,1-.18.367l-2.162,1.678a.467.467,0,0,0-.18.368v.907a.466.466,0,0,0,.751.368l1.035-.805a.466.466,0,0,1,.751.368v2.75a.465.465,0,0,0,.465.465h1.176a.465.465,0,0,0,.465-.465v-2.75a.465.465,0,0,1,.75-.368l1.036.805a.465.465,0,0,0,.75-.368v-.907a.464.464,0,0,0-.18-.368l-2.162-1.678a.466.466,0,0,1-.179-.367v-3.081a.465.465,0,0,1,.75-.367l4.341,3.37a.464.464,0,0,0,.75-.367v-1.507a.466.466,0,0,0-.179-.367l-5.554-4.312a.464.464,0,0,1-.18-.367V166.67l7.738,4.467a.465.465,0,0,1,.228.34l.957,6.965a.466.466,0,0,0,.229.34l1.3.753a.465.465,0,0,0,.693-.466l-.749-5.445a.466.466,0,0,1,.694-.466l2.667,1.54a.466.466,0,0,1,.229.34l.372,2.711a.464.464,0,0,0,.229.339l.785.454a.466.466,0,0,0,.694-.466l-.179-1.3a.465.465,0,0,1,.693-.466l2.382,1.375a.466.466,0,0,0,.636-.17l.213-.369.375-.649A.466.466,0,0,0,151.976,175.862Z"/><path class="d" d="M490.616,72.166l-2.382-1.375a.466.466,0,0,1,.057-.834l1.214-.5a.465.465,0,0,0,.057-.833l-.786-.454a.468.468,0,0,0-.408-.028l-2.534,1.033a.462.462,0,0,1-.408-.028l-2.668-1.54a.465.465,0,0,1,.057-.833L487.9,64.7a.465.465,0,0,0,.057-.833l-1.3-.753a.462.462,0,0,0-.408-.028l-6.511,2.653a.465.465,0,0,1-.408-.027l-7.738-4.468,7.738-4.467a.465.465,0,0,1,.408-.028l6.511,2.653a.462.462,0,0,0,.408-.028l1.3-.753a.465.465,0,0,0-.057-.833l-5.09-2.075a.465.465,0,0,1-.057-.833l2.668-1.54a.462.462,0,0,1,.408-.028l2.534,1.033a.465.465,0,0,0,.408-.028l.786-.454a.465.465,0,0,0-.057-.833l-1.214-.495a.466.466,0,0,1-.057-.834l2.382-1.375a.465.465,0,0,0,.17-.635l-.213-.369-.375-.65a.465.465,0,0,0-.635-.17l-2.382,1.375a.465.465,0,0,1-.693-.466l.178-1.3a.465.465,0,0,0-.693-.466l-.786.454a.464.464,0,0,0-.228.339l-.373,2.711a.465.465,0,0,1-.228.34l-2.668,1.54a.465.465,0,0,1-.693-.466l.748-5.445a.465.465,0,0,0-.693-.466l-1.3.753a.466.466,0,0,0-.228.34l-.957,6.965a.466.466,0,0,1-.229.34L470.6,59.522V50.587a.466.466,0,0,1,.179-.367l5.554-4.312a.462.462,0,0,0,.18-.367V44.034a.465.465,0,0,0-.75-.367l-4.342,3.37a.465.465,0,0,1-.75-.367V43.59a.464.464,0,0,1,.18-.368l2.162-1.678a.467.467,0,0,0,.18-.368v-.907a.465.465,0,0,0-.751-.367l-1.035.8a.466.466,0,0,1-.751-.368v-2.75a.465.465,0,0,0-.465-.465h-1.176a.465.465,0,0,0-.465.465v2.75a.465.465,0,0,1-.75.368l-1.036-.8a.464.464,0,0,0-.75.367v.907a.464.464,0,0,0,.18.368l2.161,1.678a.464.464,0,0,1,.18.368v3.08a.465.465,0,0,1-.75.367l-4.341-3.37a.465.465,0,0,0-.751.367v1.507a.465.465,0,0,0,.18.367l5.554,4.312a.467.467,0,0,1,.18.367v8.935l-7.738-4.467a.465.465,0,0,1-.228-.34l-.958-6.965a.464.464,0,0,0-.228-.34l-1.3-.753a.465.465,0,0,0-.693.466l.748,5.445a.465.465,0,0,1-.693.466l-2.668-1.54a.467.467,0,0,1-.228-.34l-.372-2.711a.466.466,0,0,0-.229-.339l-.785-.454a.466.466,0,0,0-.694.466l.179,1.3a.466.466,0,0,1-.694.466l-2.381-1.375a.467.467,0,0,0-.636.17l-.375.65-.213.369a.465.465,0,0,0,.171.635l2.381,1.375a.465.465,0,0,1-.057.834l-1.214.495a.465.465,0,0,0-.057.833l.786.454a.465.465,0,0,0,.408.028l2.534-1.033a.462.462,0,0,1,.408.028l2.668,1.54a.465.465,0,0,1-.057.833l-5.089,2.075a.464.464,0,0,0-.057.833l1.3.753a.462.462,0,0,0,.408.028l6.511-2.653a.467.467,0,0,1,.409.028l7.737,4.467-7.737,4.468a.467.467,0,0,1-.409.027l-6.511-2.653a.462.462,0,0,0-.408.028l-1.3.753a.464.464,0,0,0,.057.833l5.089,2.075a.465.465,0,0,1,.057.833l-2.668,1.54a.462.462,0,0,1-.408.028l-2.534-1.033a.468.468,0,0,0-.408.028l-.786.454a.465.465,0,0,0,.057.833l1.214.5a.465.465,0,0,1,.057.834l-2.381,1.375a.465.465,0,0,0-.171.635l.375.65.213.369a.467.467,0,0,0,.636.17l2.381-1.375a.466.466,0,0,1,.694.466l-.179,1.3a.466.466,0,0,0,.694.466l.785-.454a.464.464,0,0,0,.229-.339l.372-2.711a.467.467,0,0,1,.228-.34l2.668-1.54a.465.465,0,0,1,.693.466l-.748,5.445a.465.465,0,0,0,.693.466l1.3-.753a.462.462,0,0,0,.228-.34l.958-6.965a.465.465,0,0,1,.228-.34l7.738-4.467v8.935a.467.467,0,0,1-.18.367l-5.554,4.312a.467.467,0,0,0-.18.367v1.507a.465.465,0,0,0,.751.367l4.341-3.37a.465.465,0,0,1,.75.367v3.081a.464.464,0,0,1-.18.367l-2.161,1.678a.464.464,0,0,0-.18.368v.907a.464.464,0,0,0,.75.367l1.036-.8a.465.465,0,0,1,.75.368v2.75a.465.465,0,0,0,.465.465h1.176a.465.465,0,0,0,.465-.465v-2.75a.466.466,0,0,1,.751-.368l1.035.8a.465.465,0,0,0,.751-.367V81.32a.467.467,0,0,0-.18-.368l-2.162-1.678a.464.464,0,0,1-.18-.367V75.826a.465.465,0,0,1,.75-.367l4.342,3.37a.465.465,0,0,0,.75-.367V76.955a.464.464,0,0,0-.18-.367l-5.554-4.312a.466.466,0,0,1-.179-.367V62.974l7.737,4.467a.466.466,0,0,1,.229.34l.957,6.965a.464.464,0,0,0,.228.34l1.3.753a.465.465,0,0,0,.693-.466L481,69.928a.465.465,0,0,1,.693-.466L484.358,71a.465.465,0,0,1,.228.34l.373,2.711a.463.463,0,0,0,.228.339l.786.454a.465.465,0,0,0,.693-.466l-.178-1.3a.465.465,0,0,1,.693-.466l2.382,1.375a.465.465,0,0,0,.635-.17l.213-.369.375-.65A.465.465,0,0,0,490.616,72.166Z"/><path class="d" d="M448.117,211.429l-2.382-1.375a.465.465,0,0,1,.057-.833l1.215-.495a.466.466,0,0,0,.057-.834l-.786-.453a.462.462,0,0,0-.408-.028l-2.535,1.033a.465.465,0,0,1-.408-.028l-2.667-1.54a.465.465,0,0,1,.057-.834l5.089-2.074a.465.465,0,0,0,.057-.834l-1.305-.753a.465.465,0,0,0-.408-.028l-6.511,2.654a.465.465,0,0,1-.408-.028l-7.738-4.468,7.738-4.467a.465.465,0,0,1,.408-.028l6.511,2.654a.465.465,0,0,0,.408-.028l1.305-.754a.465.465,0,0,0-.057-.833l-5.089-2.074a.465.465,0,0,1-.057-.834l2.667-1.54a.465.465,0,0,1,.408-.028l2.535,1.033a.465.465,0,0,0,.408-.028l.786-.454a.465.465,0,0,0-.057-.833l-1.215-.495a.466.466,0,0,1-.057-.834l2.382-1.375a.465.465,0,0,0,.171-.635l-.214-.369-.374-.649a.466.466,0,0,0-.636-.171l-2.382,1.376a.465.465,0,0,1-.693-.467l.179-1.3a.466.466,0,0,0-.694-.466l-.785.454a.466.466,0,0,0-.229.339l-.372,2.712a.466.466,0,0,1-.229.339l-2.667,1.54a.465.465,0,0,1-.694-.466l.749-5.445a.465.465,0,0,0-.693-.466l-1.3.754a.464.464,0,0,0-.229.339l-.957,6.966a.464.464,0,0,1-.228.339l-7.738,4.467v-8.934a.464.464,0,0,1,.18-.368l5.554-4.312a.464.464,0,0,0,.179-.367V183.3a.465.465,0,0,0-.75-.367l-4.341,3.371a.465.465,0,0,1-.75-.368v-3.08a.468.468,0,0,1,.179-.368l2.162-1.678a.464.464,0,0,0,.18-.367v-.908a.465.465,0,0,0-.75-.367l-1.036.8a.465.465,0,0,1-.75-.367v-2.751a.466.466,0,0,0-.465-.465h-1.176a.465.465,0,0,0-.465.465V179.6a.465.465,0,0,1-.751.367l-1.035-.8a.465.465,0,0,0-.751.367v.908a.467.467,0,0,0,.18.367l2.162,1.678a.469.469,0,0,1,.18.368v3.08a.466.466,0,0,1-.751.368l-4.341-3.371a.465.465,0,0,0-.75.367V184.8a.462.462,0,0,0,.18.367l5.553,4.312a.464.464,0,0,1,.18.368v8.934l-7.738-4.467a.467.467,0,0,1-.228-.339l-.957-6.966a.465.465,0,0,0-.228-.339l-1.3-.754a.465.465,0,0,0-.693.466l.748,5.445a.464.464,0,0,1-.693.466l-2.668-1.54a.464.464,0,0,1-.228-.339l-.373-2.712a.467.467,0,0,0-.228-.339l-.786-.454a.465.465,0,0,0-.693.466l.178,1.3a.465.465,0,0,1-.693.467l-2.382-1.376a.465.465,0,0,0-.635.171l-.375.649-.213.369a.465.465,0,0,0,.17.635l2.382,1.375a.466.466,0,0,1-.057.834l-1.214.495a.465.465,0,0,0-.057.833l.785.454a.465.465,0,0,0,.408.028l2.535-1.033a.465.465,0,0,1,.408.028l2.668,1.54a.466.466,0,0,1-.057.834l-5.09,2.074a.465.465,0,0,0-.057.833l1.3.754a.465.465,0,0,0,.408.028l6.511-2.654a.465.465,0,0,1,.408.028l7.738,4.467-7.738,4.468a.465.465,0,0,1-.408.028l-6.511-2.654a.465.465,0,0,0-.408.028l-1.3.753a.466.466,0,0,0,.057.834l5.09,2.074a.466.466,0,0,1,.057.834l-2.668,1.54a.465.465,0,0,1-.408.028l-2.535-1.033a.462.462,0,0,0-.408.028l-.785.453a.465.465,0,0,0,.057.834l1.214.495a.465.465,0,0,1,.057.833l-2.382,1.375a.466.466,0,0,0-.17.636l.375.649.213.369a.465.465,0,0,0,.635.17l2.382-1.375a.465.465,0,0,1,.693.466l-.178,1.3a.465.465,0,0,0,.693.466l.786-.453a.469.469,0,0,0,.228-.34l.373-2.711a.466.466,0,0,1,.228-.34l2.668-1.54a.465.465,0,0,1,.693.466l-.748,5.445a.464.464,0,0,0,.693.466l1.3-.753a.467.467,0,0,0,.228-.339l.957-6.966a.469.469,0,0,1,.228-.34l7.738-4.467v8.935a.462.462,0,0,1-.18.367l-5.553,4.312a.464.464,0,0,0-.18.367v1.507a.465.465,0,0,0,.75.368l4.341-3.371a.466.466,0,0,1,.751.368v3.08a.465.465,0,0,1-.18.367l-2.162,1.679a.465.465,0,0,0-.18.367v.907a.466.466,0,0,0,.751.368l1.035-.805a.466.466,0,0,1,.751.368v2.75a.465.465,0,0,0,.465.465h1.176a.465.465,0,0,0,.465-.465v-2.75a.465.465,0,0,1,.75-.368l1.036.805a.465.465,0,0,0,.75-.368v-.907a.462.462,0,0,0-.18-.367l-2.162-1.679a.464.464,0,0,1-.179-.367v-3.08a.465.465,0,0,1,.75-.368l4.341,3.371a.465.465,0,0,0,.75-.368v-1.507a.466.466,0,0,0-.179-.367l-5.554-4.312a.462.462,0,0,1-.18-.367v-8.935l7.738,4.467a.466.466,0,0,1,.228.34l.957,6.966a.466.466,0,0,0,.229.339l1.3.753a.465.465,0,0,0,.693-.466l-.749-5.445a.466.466,0,0,1,.694-.466l2.667,1.54a.468.468,0,0,1,.229.34l.372,2.711a.468.468,0,0,0,.229.34l.785.453a.466.466,0,0,0,.694-.466l-.179-1.3a.465.465,0,0,1,.693-.466l2.382,1.375a.466.466,0,0,0,.636-.17l.213-.369.375-.649A.466.466,0,0,0,448.117,211.429Z" transform="translate(-194 -81)"/><path class="d" d="M313.275,48.041l-2.382-1.375a.466.466,0,0,1,.057-.834l1.214-.495a.464.464,0,0,0,.057-.833l-.785-.454a.469.469,0,0,0-.408-.028l-2.535,1.033a.462.462,0,0,1-.408-.028l-2.668-1.54a.465.465,0,0,1,.057-.833l5.09-2.075a.465.465,0,0,0,.057-.833l-1.3-.753a.462.462,0,0,0-.408-.028L302.4,41.618a.465.465,0,0,1-.408-.027l-7.738-4.468,7.738-4.467a.465.465,0,0,1,.408-.028l6.511,2.653a.462.462,0,0,0,.408-.028l1.3-.753a.465.465,0,0,0-.057-.833l-5.09-2.075a.465.465,0,0,1-.057-.833l2.668-1.54a.462.462,0,0,1,.408-.028l2.535,1.033a.465.465,0,0,0,.408-.028l.785-.454a.464.464,0,0,0-.057-.833l-1.214-.5a.466.466,0,0,1-.057-.834l2.382-1.375a.465.465,0,0,0,.17-.635l-.213-.369-.375-.65a.465.465,0,0,0-.635-.17l-2.382,1.375a.465.465,0,0,1-.693-.466l.178-1.3a.465.465,0,0,0-.693-.466l-.786.454a.467.467,0,0,0-.228.339l-.373,2.711a.462.462,0,0,1-.228.34l-2.668,1.54a.465.465,0,0,1-.693-.466L304.4,23a.465.465,0,0,0-.693-.466l-1.3.753a.469.469,0,0,0-.228.34l-.957,6.965a.467.467,0,0,1-.228.34L293.255,35.4V26.462a.464.464,0,0,1,.18-.367l5.553-4.312a.462.462,0,0,0,.18-.367V19.909a.465.465,0,0,0-.75-.367l-4.341,3.37a.465.465,0,0,1-.751-.367v-3.08a.467.467,0,0,1,.18-.368l2.162-1.678a.467.467,0,0,0,.18-.368v-.907a.465.465,0,0,0-.751-.367l-1.035.8a.466.466,0,0,1-.751-.368v-2.75a.465.465,0,0,0-.465-.465H291.67a.465.465,0,0,0-.465.465v2.75a.465.465,0,0,1-.75.368l-1.036-.8a.465.465,0,0,0-.75.367v.907a.464.464,0,0,0,.18.368l2.162,1.678a.466.466,0,0,1,.179.368v3.08a.464.464,0,0,1-.75.367l-4.341-3.37a.465.465,0,0,0-.75.367v1.507a.464.464,0,0,0,.179.367l5.554,4.312a.464.464,0,0,1,.18.367V35.4l-7.738-4.467a.465.465,0,0,1-.228-.34l-.957-6.965a.468.468,0,0,0-.229-.34l-1.3-.753a.465.465,0,0,0-.693.466l.749,5.445a.466.466,0,0,1-.694.466l-2.667-1.54a.466.466,0,0,1-.229-.34l-.372-2.711a.467.467,0,0,0-.228-.339l-.786-.454a.466.466,0,0,0-.694.466l.179,1.3a.465.465,0,0,1-.693.466L272.3,24.381a.467.467,0,0,0-.636.17l-.374.65-.213.369a.464.464,0,0,0,.17.635l2.382,1.375a.466.466,0,0,1-.057.834l-1.215.5a.465.465,0,0,0-.057.833l.786.454a.465.465,0,0,0,.408.028l2.535-1.033a.462.462,0,0,1,.408.028l2.667,1.54a.464.464,0,0,1-.057.833l-5.089,2.075a.465.465,0,0,0-.057.833l1.3.753a.462.462,0,0,0,.408.028l6.511-2.653a.465.465,0,0,1,.408.028l7.738,4.467-7.738,4.468a.465.465,0,0,1-.408.027l-6.511-2.653a.462.462,0,0,0-.408.028l-1.3.753a.465.465,0,0,0,.057.833l5.089,2.075a.464.464,0,0,1,.057.833l-2.667,1.54a.462.462,0,0,1-.408.028l-2.535-1.033a.468.468,0,0,0-.408.028l-.786.454a.465.465,0,0,0,.057.833l1.215.495a.466.466,0,0,1,.057.834l-2.382,1.375a.464.464,0,0,0-.17.635l.374.65.213.369a.467.467,0,0,0,.636.17l2.382-1.375a.465.465,0,0,1,.693.466l-.179,1.3a.466.466,0,0,0,.694.466l.786-.454a.465.465,0,0,0,.228-.339l.372-2.711a.466.466,0,0,1,.229-.34l2.667-1.54a.466.466,0,0,1,.694.466l-.749,5.445a.465.465,0,0,0,.693.466l1.3-.753a.466.466,0,0,0,.229-.34l.957-6.965a.465.465,0,0,1,.228-.34l7.738-4.467v8.935a.464.464,0,0,1-.18.367l-5.554,4.312a.466.466,0,0,0-.179.367v1.507a.464.464,0,0,0,.75.367l4.341-3.37a.465.465,0,0,1,.75.367v3.081a.466.466,0,0,1-.179.367l-2.162,1.678a.464.464,0,0,0-.18.368V58.1a.465.465,0,0,0,.75.367l1.036-.8a.465.465,0,0,1,.75.368v2.75a.465.465,0,0,0,.465.465h1.176a.465.465,0,0,0,.465-.465v-2.75a.466.466,0,0,1,.751-.368l1.035.8a.465.465,0,0,0,.751-.367v-.907a.467.467,0,0,0-.18-.368l-2.162-1.678a.467.467,0,0,1-.18-.367V51.7a.465.465,0,0,1,.751-.367l4.341,3.37a.465.465,0,0,0,.75-.367V52.83a.464.464,0,0,0-.18-.367l-5.553-4.312a.464.464,0,0,1-.18-.367V38.849l7.738,4.467a.467.467,0,0,1,.228.34l.957,6.965a.467.467,0,0,0,.228.34l1.3.753a.465.465,0,0,0,.693-.466l-.748-5.445a.465.465,0,0,1,.693-.466l2.668,1.54a.462.462,0,0,1,.228.34l.373,2.711a.465.465,0,0,0,.228.339l.786.454a.465.465,0,0,0,.693-.466l-.178-1.3a.465.465,0,0,1,.693-.466l2.382,1.375a.465.465,0,0,0,.635-.17l.213-.369.375-.65A.465.465,0,0,0,313.275,48.041Z"/><path class="d" d="M63.034,269.761l-2.382-1.376a.465.465,0,0,1,.057-.833l1.214-.495a.465.465,0,0,0,.057-.833l-.785-.454a.467.467,0,0,0-.409-.028l-2.534,1.033a.465.465,0,0,1-.408-.028l-2.668-1.54a.466.466,0,0,1,.057-.834l5.09-2.074a.465.465,0,0,0,.057-.833l-1.305-.754a.465.465,0,0,0-.408-.028l-6.511,2.654a.465.465,0,0,1-.408-.028l-7.738-4.467,7.738-4.468a.465.465,0,0,1,.408-.028L58.667,257a.465.465,0,0,0,.408-.028l1.305-.753a.466.466,0,0,0-.057-.834l-5.09-2.074a.466.466,0,0,1-.057-.834l2.668-1.54a.465.465,0,0,1,.408-.028l2.534,1.033a.467.467,0,0,0,.409-.028l.785-.453a.465.465,0,0,0-.057-.834l-1.214-.5a.465.465,0,0,1-.057-.833l2.382-1.375a.466.466,0,0,0,.17-.636l-.213-.369-.375-.649a.464.464,0,0,0-.635-.17L59.6,247.476a.465.465,0,0,1-.693-.466l.178-1.3a.465.465,0,0,0-.693-.467l-.786.454a.465.465,0,0,0-.228.34L57,248.749a.463.463,0,0,1-.228.339l-2.668,1.541a.465.465,0,0,1-.693-.466l.748-5.445a.464.464,0,0,0-.693-.466l-1.305.753a.467.467,0,0,0-.228.339l-.957,6.966a.466.466,0,0,1-.229.339l-7.737,4.468v-8.935a.464.464,0,0,1,.179-.367l5.554-4.312a.464.464,0,0,0,.18-.368v-1.506a.465.465,0,0,0-.75-.368l-4.342,3.371a.465.465,0,0,1-.75-.368v-3.08a.465.465,0,0,1,.18-.367l2.162-1.679a.467.467,0,0,0,.18-.367v-.907a.466.466,0,0,0-.751-.368l-1.035.8a.465.465,0,0,1-.751-.367v-2.75a.466.466,0,0,0-.465-.466H41.429a.466.466,0,0,0-.465.466v2.75a.465.465,0,0,1-.75.367l-1.036-.8a.465.465,0,0,0-.75.368v.907a.464.464,0,0,0,.18.367l2.161,1.679a.462.462,0,0,1,.18.367v3.08a.465.465,0,0,1-.75.368l-4.341-3.371a.466.466,0,0,0-.751.368v1.506a.467.467,0,0,0,.18.368l5.554,4.312a.465.465,0,0,1,.18.367v8.935l-7.738-4.468a.465.465,0,0,1-.228-.339l-.958-6.966a.462.462,0,0,0-.228-.339l-1.305-.753a.464.464,0,0,0-.693.466l.748,5.445a.465.465,0,0,1-.693.466l-2.668-1.541a.465.465,0,0,1-.228-.339l-.372-2.711a.466.466,0,0,0-.229-.34l-.785-.454a.466.466,0,0,0-.694.467l.179,1.3a.465.465,0,0,1-.693.466L22.054,246.1a.465.465,0,0,0-.636.17l-.375.649-.213.369a.466.466,0,0,0,.171.636l2.381,1.375a.464.464,0,0,1-.057.833l-1.214.5a.466.466,0,0,0-.057.834l.786.453a.465.465,0,0,0,.408.028l2.534-1.033a.467.467,0,0,1,.409.028l2.667,1.54a.466.466,0,0,1-.057.834l-5.089,2.074a.465.465,0,0,0-.057.834l1.3.753a.467.467,0,0,0,.409.028l6.511-2.654a.465.465,0,0,1,.408.028l7.737,4.468-7.737,4.467a.465.465,0,0,1-.408.028l-6.511-2.654a.467.467,0,0,0-.409.028l-1.3.754a.465.465,0,0,0,.057.833l5.089,2.074a.466.466,0,0,1,.057.834l-2.667,1.54a.467.467,0,0,1-.409.028l-2.534-1.033a.465.465,0,0,0-.408.028l-.786.454a.465.465,0,0,0,.057.833l1.214.495a.464.464,0,0,1,.057.833L21,269.761a.465.465,0,0,0-.171.635l.375.649.213.369a.466.466,0,0,0,.636.171l2.382-1.376a.465.465,0,0,1,.693.466l-.179,1.3a.466.466,0,0,0,.694.466l.785-.454a.466.466,0,0,0,.229-.34l.372-2.711a.465.465,0,0,1,.228-.339l2.668-1.54a.464.464,0,0,1,.693.466l-.748,5.444a.465.465,0,0,0,.693.467l1.305-.754a.462.462,0,0,0,.228-.339l.958-6.966a.465.465,0,0,1,.228-.339l7.738-4.468V269.5a.469.469,0,0,1-.18.368l-5.554,4.311a.469.469,0,0,0-.18.368v1.507a.466.466,0,0,0,.751.367l4.341-3.371a.465.465,0,0,1,.75.368v3.08a.462.462,0,0,1-.18.367l-2.161,1.679a.464.464,0,0,0-.18.367v.908a.465.465,0,0,0,.75.367l1.036-.8a.465.465,0,0,1,.75.367V282.5a.465.465,0,0,0,.465.465H42.6a.465.465,0,0,0,.465-.465v-2.751a.465.465,0,0,1,.751-.367l1.035.8a.466.466,0,0,0,.751-.367v-.908a.467.467,0,0,0-.18-.367l-2.162-1.679a.465.465,0,0,1-.18-.367v-3.08a.465.465,0,0,1,.75-.368l4.342,3.371a.465.465,0,0,0,.75-.367V274.55a.466.466,0,0,0-.18-.368l-5.554-4.311a.468.468,0,0,1-.179-.368v-8.935l7.737,4.468a.466.466,0,0,1,.229.339l.957,6.966a.467.467,0,0,0,.228.339l1.305.754a.465.465,0,0,0,.693-.467l-.748-5.444a.464.464,0,0,1,.693-.466l2.668,1.54a.463.463,0,0,1,.228.339l.373,2.711a.464.464,0,0,0,.228.34l.786.454a.465.465,0,0,0,.693-.466l-.178-1.3a.465.465,0,0,1,.693-.466l2.382,1.376a.465.465,0,0,0,.635-.171l.213-.369.375-.649A.464.464,0,0,0,63.034,269.761Z"/><path class="d" d="M62.333,167.076A5.076,5.076,0,1,1,57.258,162,5.075,5.075,0,0,1,62.333,167.076Z"/><circle class="d" cx="5.076" cy="5.076" r="5.076" transform="translate(156.924 83.924)"/><path class="d" d="M383.756,37.123a5.076,5.076,0,1,1-5.076-5.076A5.077,5.077,0,0,1,383.756,37.123Z"/><circle class="d" cx="5.076" cy="5.076" r="5.076" transform="translate(464.523 244.924)"/><path class="d" d="M388.831,262.639a5.076,5.076,0,1,1-5.075-5.075A5.075,5.075,0,0,1,388.831,262.639Z" transform="translate(-122 -69)"/><path class="d" d="M196.742,28a5.076,5.076,0,1,1-5.075-5.076A5.076,5.076,0,0,1,196.742,28Z"/><path class="d" d="M447.492,132.973a5.076,5.076,0,1,1-5.076-5.076A5.076,5.076,0,0,1,447.492,132.973Z"/><path class="d" d="M341.076,101.333A5.076,5.076,0,1,1,336,96.258,5.076,5.076,0,0,1,341.076,101.333Z"/><path class="d" d="M33.742,28a5.076,5.076,0,1,1-5.075-5.076A5.076,5.076,0,0,1,33.742,28Z"/><path class="d" d="M139.52,224.874a5.076,5.076,0,1,1-5.076-5.075A5.075,5.075,0,0,1,139.52,224.874Z"/></g></g></g></g></svg>