<?xml version="1.0" encoding="UTF-8" standalone="no"?>
<svg
   xmlns:dc="http://purl.org/dc/elements/1.1/"
   xmlns:cc="http://creativecommons.org/ns#"
   xmlns:rdf="http://www.w3.org/1999/02/22-rdf-syntax-ns#"
   xmlns:svg="http://www.w3.org/2000/svg"
   xmlns="http://www.w3.org/2000/svg"
   xmlns:sodipodi="http://sodipodi.sourceforge.net/DTD/sodipodi-0.dtd"
   xmlns:inkscape="http://www.inkscape.org/namespaces/inkscape"
   viewBox="0 0 700 412"
   version="1.1"
   id="svg3919"
   sodipodi:docname="santa.svg"
   inkscape:version="0.92.3 (2405546, 2018-03-11)">
  <metadata
     id="metadata3923">
    <rdf:RDF>
      <cc:Work
         rdf:about="">
        <dc:format>image/svg+xml</dc:format>
        <dc:type
           rdf:resource="http://purl.org/dc/dcmitype/StillImage" />
        <dc:title></dc:title>
      </cc:Work>
    </rdf:RDF>
  </metadata>
  <sodipodi:namedview
     pagecolor="#ffffff"
     bordercolor="#666666"
     borderopacity="1"
     objecttolerance="10"
     gridtolerance="10"
     guidetolerance="10"
     inkscape:pageopacity="0"
     inkscape:pageshadow="2"
     inkscape:window-width="1920"
     inkscape:window-height="1017"
     id="namedview3921"
     showgrid="false"
     inkscape:zoom="1.4588368"
     inkscape:cx="331.74824"
     inkscape:cy="188.40107"
     inkscape:window-x="-8"
     inkscape:window-y="-8"
     inkscape:window-maximized="1"
     inkscape:current-layer="layer2" />
  <defs
     id="defs3824">
    <style
       id="style3819">.a{clip-path:url(#b);}.b{fill:#f7ebe2;}.c{fill:#c72727;}.d{fill:#a4201e;}.e{fill:#a71f21;}.f{fill:#ff9d73;}.g{fill:#562600;}.h{fill:#f97c64;}.i{fill:#ebd6c5;}.j{fill:#707070;font-size:57px;font-family:BrushScriptMT, Brush Script MT;}</style>
    <clipPath
       id="b">
      <rect
         width="700"
         height="412"
         id="rect3821" />
    </clipPath>
    <clipPath
       clipPathUnits="userSpaceOnUse"
       id="clipPath8482">
      <rect
         id="rect8484"
         width="700.55817"
         height="186.85631"
         x="-37.696522"
         y="-415.03641"
         clip-path="none"
         transform="scale(1,-1)"
         style="stroke-width:1.16166675" />
    </clipPath>
    <clipPath
       clipPathUnits="userSpaceOnUse"
       id="clipPath8486">
      <rect
         id="rect8488"
         width="700.55817"
         height="186.85631"
         x="-37.698521"
         y="-415.03641"
         clip-path="none"
         transform="scale(1,-1)"
         style="stroke-width:1.16166675" />
    </clipPath>
    <clipPath
       clipPathUnits="userSpaceOnUse"
       id="clipPath8490">
      <rect
         id="rect8492"
         width="700.55817"
         height="186.85631"
         x="15.932478"
         y="-355.2684"
         clip-path="none"
         transform="scale(1,-1)"
         style="stroke-width:1.16166675" />
    </clipPath>
    <clipPath
       clipPathUnits="userSpaceOnUse"
       id="clipPath8494">
      <rect
         id="rect8496"
         width="700.55817"
         height="186.85631"
         x="15.932478"
         y="-367.56842"
         clip-path="none"
         transform="scale(1,-1)"
         style="stroke-width:1.16166675" />
    </clipPath>
    <clipPath
       clipPathUnits="userSpaceOnUse"
       id="clipPath8498">
      <rect
         id="rect8500"
         width="700.55817"
         height="186.85631"
         x="1.4854776"
         y="-344.75342"
         clip-path="none"
         transform="scale(1,-1)"
         style="stroke-width:1.16166675" />
    </clipPath>
    <clipPath
       clipPathUnits="userSpaceOnUse"
       id="clipPath8502">
      <rect
         id="rect8504"
         width="700.55817"
         height="186.85631"
         x="1.4854776"
         y="-340.50443"
         clip-path="none"
         transform="scale(1,-1)"
         style="stroke-width:1.16166675" />
    </clipPath>
    <clipPath
       clipPathUnits="userSpaceOnUse"
       id="clipPath8506">
      <rect
         id="rect8508"
         width="700.55817"
         height="186.85631"
         x="-193.87453"
         y="-344.75342"
         clip-path="none"
         transform="scale(1,-1)"
         style="stroke-width:1.16166675" />
    </clipPath>
    <clipPath
       clipPathUnits="userSpaceOnUse"
       id="clipPath8510">
      <rect
         id="rect8512"
         width="700.55817"
         height="186.85631"
         x="-193.87453"
         y="-340.50443"
         clip-path="none"
         transform="scale(1,-1)"
         style="stroke-width:1.16166675" />
    </clipPath>
  </defs>
  <g
     inkscape:groupmode="layer"
     id="layer2"
     inkscape:label="deleteArea"
     style="display:inline">
    <path
       class="d"
       d="m 396.671,327.22 c -0.894,0.894 -38.456,3.577 -42.033,20.271 -3.577,16.694 0.6,19.378 1.789,19.378 1.189,0 42.331,-5.069 42.331,-5.069 z"
       transform="matrix(1,0,0,0.98315122,194.56,14.854191)"
       id="path3836"
       inkscape:connector-curvature="0"
       style="fill:#a4201e"
       clip-path="url(#clipPath8510)" />
    <path
       class="c"
       d="m 396.671,321.833 c -0.894,0.894 -38.456,3.577 -42.033,20.272 -3.577,16.695 0.6,19.376 1.789,19.376 1.189,0 42.331,-5.067 42.331,-5.067 z"
       transform="matrix(1,0,0,0.98315122,194.56,10.676782)"
       id="path3834"
       inkscape:connector-curvature="0"
       style="fill:#c72727"
       clip-path="url(#clipPath8506)" />
    <path
       class="d"
       d="m 107.587,327.22 c 0.894,0.894 38.456,3.577 42.033,20.271 3.577,16.694 -0.6,19.378 -1.789,19.378 -1.189,0 -42.331,-5.069 -42.331,-5.069 z"
       transform="matrix(1,0,0,0.98315122,-0.8,14.854191)"
       id="path3840"
       inkscape:connector-curvature="0"
       style="fill:#a4201e"
       clip-path="url(#clipPath8502)" />
    <path
       class="c"
       d="m 107.587,321.833 c 0.894,0.894 38.456,3.577 42.033,20.272 3.577,16.695 -0.6,19.376 -1.789,19.376 -1.189,0 -42.332,-5.067 -42.332,-5.067 z"
       id="path3838"
       inkscape:connector-curvature="0"
       style="fill:#c72727"
       clip-path="url(#clipPath8498)"
       transform="matrix(1,0,0,0.98315122,-0.8,10.676782)" />
    <path
       class="c"
       d="m 508.236,308.983 c -80.431,-36.182 -143.979,0 -143.979,0 0,0 -63.548,-36.182 -143.979,0 C 139.847,345.165 87.18,504.135 87.18,504.135 h 554.153 c 0,0 -52.666,-158.969 -133.097,-195.152 z"
       transform="matrix(1,0,0,0.98315122,-15.247,-11.753814)"
       id="path3828"
       inkscape:connector-curvature="0"
       style="fill:#c72727"
       clip-path="url(#clipPath8494)" />
    <path
       class="d"
       d="m 508.236,322.457 c -80.431,-31.4 -143.979,0 -143.979,0 0,0 -63.548,-31.4 -143.979,0 C 139.847,353.857 87.18,491.835 87.18,491.835 h 554.153 c 0,0 -52.666,-137.973 -133.097,-169.378 z"
       transform="matrix(1,0,0,0.98315122,-15.247,0.33894645)"
       id="path3830"
       inkscape:connector-curvature="0"
       style="fill:#a4201e"
       clip-path="url(#clipPath8490)" />
    <path
       class="f"
       d="m 17.136,0 h 187.59 a 17.136,17.136 0 0 1 17.136,17.136 v 117.13 H 0 V 17.136 A 17.136,17.136 0 0 1 17.136,0 Z"
       transform="matrix(1,0,0,0.98315122,237.689,113.74446)"
       id="path3850"
       inkscape:connector-curvature="0"
       style="display:inline;fill:#ff9d73" />
    <path
       class="b"
       d="m 433.232,240.746 c 0,0 43.948,65.176 42.564,114.66 -1.384,49.484 -45.909,112.4 -114.542,155.375 -39.8,24.916 -51.019,33.912 -51.019,33.912 0,0 -132.035,-56.059 -153.494,-157.374 -9.748,-46.034 29.409,-145.5 32.265,-146.655 2.856,-1.155 12.714,-7.951 12.714,-7.951 0,0 -4.108,75.927 36.724,76.62 40.832,0.693 54.685,-14.833 71.792,-14.833 17.107,0 49.635,16.956 79.741,13.15 30.106,-3.806 31.233,-73.291 31.233,-73.291 z"
       id="path3874"
       transform="matrix(1,0,0,0.98315122,38.384,-58.422036)"
       inkscape:connector-curvature="0"
       style="fill:#f7ebe2"
       clip-path="url(#clipPath8486)" />
    <path
       class="i"
       d="M 156.741,387.32 C 178.2,488.637 310.237,544.7 310.237,544.7 c 0,0 11.224,-9 51.02,-33.913 68.634,-42.974 113.159,-105.895 114.543,-155.38 a 91.362,91.362 0 0 0 -0.309,-10.04 C 453.465,422 338.128,506.794 335.627,508.189 332.835,509.747 215.916,446.42 185.81,398.146 c -30.106,-48.274 15.91,-165.432 15.91,-165.432 0,0 -9.857,6.8 -12.714,7.951 -2.857,1.151 -42.014,100.621 -32.265,146.655 z"
       id="path3888"
       inkscape:connector-curvature="0"
       style="fill:#ebd6c5"
       clip-path="url(#clipPath8482)"
       transform="matrix(1,0,0,0.98315122,38.382,-58.422036)" />
  </g>
  <g
     inkscape:groupmode="layer"
     id="layer3"
     inkscape:label="setPiece"
     style="display:inline">
    <g
       id="a"
       class="a"
       clip-path="url(#b)">
      <g
         transform="matrix(1,0,0,0.98315122,-84,-131.81919)"
         id="g3912">
        <g
           transform="translate(0,138.049)"
           id="g3910">
          <path
             class="b"
             d="m 46.9,364.561 c 0,0 -1.547,-28.484 9.185,-40.407 10.732,-11.923 36.071,-21.464 67.372,-16.992 31.301,4.472 39.173,19.042 42.133,29.321 2.96,10.279 -7.852,22.251 -7.852,22.251 z"
             transform="translate(36.925,-5.566)"
             id="path3826"
             inkscape:connector-curvature="0"
             style="fill:#f7ebe2" />
          <path
             class="b"
             d="m 489.874,364.561 c 0,0 1.547,-28.484 -9.185,-40.407 -10.732,-11.923 -36.071,-21.464 -67.372,-16.992 -31.301,4.472 -39.173,19.042 -42.135,29.321 -2.962,10.279 7.854,22.251 7.854,22.251 z"
             transform="translate(292.321,-5.566)"
             id="path3832"
             inkscape:connector-curvature="0"
             style="fill:#f7ebe2" />
          <path
             class="d"
             d="m 241.123,138.863 c 0,0 59.973,-7.094 104.266,20.591 44.293,27.685 96.892,129.42 96.892,129.42 l -30.106,24.311 -87.55,-46.864 z"
             transform="translate(190.157,-138.049)"
             id="path3842"
             inkscape:connector-curvature="0"
             style="fill:#a4201e" />
          <path
             class="c"
             d="M 403.243,223.664 C 385.777,197.901 364.787,171.577 345.39,159.454 301.096,131.77 241.124,138.863 241.124,138.863 l 10.57,16.137 49.747,22.1 c 0,0 68.864,32.873 86.512,47.061 2.39,1.923 4.958,4.069 7.612,6.334 4.589,3.915 11.062,-1.841 7.678,-6.831 z"
             transform="translate(190.157,-138.049)"
             id="path3844"
             inkscape:connector-curvature="0"
             style="fill:#c72727" />
          <path
             class="e"
             d="m 370.556,158.748 c -44.444,-26.992 -105.577,-26.992 -150.02,0 -44.443,26.992 -48.424,107.214 -48.424,107.214 l 123.433,-8.936 123.432,8.936 c 0,0 -3.977,-80.222 -48.421,-107.214 z"
             transform="translate(135.734,-137.69)"
             id="path3846"
             inkscape:connector-curvature="0"
             style="fill:#a71f21" />
          <path
             class="c"
             d="m 366.232,168.927 c -3.475,-6.1 -8.669,-10.027 -13.263,-15.341 -43.383,-21.7 -99.271,-19.983 -140.672,5.162 a 72.911,72.911 0 0 0 -21.106,20.111 273.186,273.186 0 0 0 -8.63,54.228 l 97.652,-8.936 97.65,8.936 c 0,0 4.486,-35.853 -11.631,-64.16 z"
             transform="translate(143.973,-137.69)"
             id="path3848"
             inkscape:connector-curvature="0"
             style="fill:#c72727" />
          <circle
             class="g"
             cx="13.496"
             cy="13.496"
             r="13.496"
             transform="matrix(0.248,-0.969,0.969,0.248,369.999,198.354)"
             id="circle3852"
             style="fill:#562600" />
          <circle
             class="b"
             cx="4.2820001"
             cy="4.2820001"
             r="4.2820001"
             transform="translate(385.125,177.352)"
             id="circle3854"
             style="fill:#f7ebe2" />
          <circle
             class="g"
             cx="13.496"
             cy="13.496"
             r="13.496"
             transform="rotate(-13.239,1001.1229,-1907.1425)"
             id="circle3856"
             style="fill:#562600" />
          <circle
             class="b"
             cx="4.2820001"
             cy="4.2820001"
             r="4.2820001"
             transform="translate(472.329,177.352)"
             id="circle3858"
             style="fill:#f7ebe2" />
          <path
             class="h"
             d="m 232.165,265.633 c 0,3.751 -7.67,6.791 -17.13,6.791 -9.46,0 -17.13,-3.041 -17.13,-6.791 0,-3.75 7.67,-6.79 17.13,-6.79 9.46,0 17.13,3.039 17.13,6.79 z"
             transform="translate(156.075,-42.787)"
             id="path3860"
             inkscape:connector-curvature="0"
             style="fill:#f97c64" />
          <path
             class="h"
             d="m 300.943,265.633 c 0,3.751 -7.668,6.791 -17.128,6.791 -9.46,0 -17.13,-3.041 -17.13,-6.791 0,-3.75 7.668,-6.79 17.13,-6.79 9.462,0 17.128,3.039 17.128,6.79 z"
             transform="translate(210.316,-42.787)"
             id="path3862"
             inkscape:connector-curvature="0"
             style="fill:#f97c64" />
          <g
             transform="translate(360.556,184.045)"
             id="g3868">
            <path
               class="g"
               d="m 229.655,297.093 a 28.073,28.073 0 1 1 28.074,-28.073 28.1,28.1 0 0 1 -28.074,28.073 z m 0,-51.994 a 23.921,23.921 0 1 0 23.921,23.921 23.948,23.948 0 0 0 -23.921,-23.92 z"
               transform="translate(-201.582,-240.946)"
               id="path3864"
               inkscape:connector-curvature="0"
               style="fill:#562600" />
            <path
               class="g"
               d="m 279.28,297.093 a 28.073,28.073 0 1 1 28.074,-28.073 28.1,28.1 0 0 1 -28.074,28.073 z m 0,-51.994 A 23.921,23.921 0 1 0 303.2,269.02 23.948,23.948 0 0 0 279.28,245.1 Z"
               transform="translate(-162.446,-240.946)"
               id="path3866"
               inkscape:connector-curvature="0"
               style="fill:#562600" />
          </g>
          <path
             class="i"
             d="m 372.87,185.034 h -148 c -30.527,0 -55.272,26.261 -55.272,58.655 v 27.176 c 0,5.94 6.217,9.5 10.9,6.246 l 7.4,-5.149 a 86,86 0 0 1 47.168,-15.547 l 63.8,-1.479 63.806,1.479 a 86.007,86.007 0 0 1 47.168,15.547 l 7.4,5.149 c 4.679,3.257 10.9,-0.306 10.9,-6.246 v -27.176 c 0.001,-32.394 -24.74,-58.655 -55.27,-58.655 z"
             transform="translate(133.75,-100.995)"
             id="path3870"
             inkscape:connector-curvature="0"
             style="fill:#ebd6c5" />
          <path
             class="b"
             d="m 369.7,185.034 h -148 c -18.165,0 -34.281,9.3 -44.356,23.656 a 58.206,58.206 0 0 0 -3.735,20.576 v 25.667 c 0,5.611 5.872,8.975 10.292,5.9 l 6.99,-4.863 a 81.223,81.223 0 0 1 44.548,-14.683 l 60.261,-1.4 60.261,1.4 a 81.219,81.219 0 0 1 44.548,14.683 l 6.992,4.863 c 4.42,3.076 10.292,-0.288 10.292,-5.9 v -25.666 a 58.168,58.168 0 0 0 -3.736,-20.576 C 403.985,194.335 387.868,185.034 369.7,185.034 Z"
             transform="translate(136.916,-100.995)"
             id="path3872"
             inkscape:connector-curvature="0"
             style="fill:#f7ebe2" />
          <path
             class="d"
             d="m 224.644,303.452 c 0,0 20.324,21.02 43.423,14.533 23.099,-6.487 29.069,-16.092 29.069,-16.092 l -41.677,-19.2 z"
             transform="translate(177.161,-23.982)"
             id="path3876"
             inkscape:connector-curvature="0"
             style="fill:#a4201e" />
          <path
             class="i"
             d="m 267.119,285.123 a 17.406,17.406 0 0 1 -3.137,9.474 l -0.173,-6.575 c 0,0 -5.382,8.39 -23.834,16.307 -16.931,7.262 -50.3,2.034 -50.3,2.034 0,0 9.417,12.88 35.376,12.889 31.793,0.013 57.986,-16.09 57.986,-16.09 0,0 26.193,16.1 57.986,16.09 25.96,-0.009 35.377,-12.889 35.377,-12.889 0,0 -33.37,5.228 -50.3,-2.034 -18.453,-7.916 -23.833,-16.307 -23.833,-16.307 l -0.173,6.575 a 17.406,17.406 0 0 1 -3.137,-9.474 c 0,-3.18 8.691,-12.458 8.691,-12.458 l -1.105,-0.61 c -9.265,-2.619 -17.377,-4.8 -23.5,-4.8 -7.634,0 -14.627,3.094 -23.655,6.457 2.245,2.511 7.731,8.882 7.731,11.411 z"
             transform="translate(149.583,-36.15)"
             id="path3878"
             inkscape:connector-curvature="0"
             style="fill:#ebd6c5" />
          <ellipse
             class="h"
             cx="24.999001"
             cy="15.399"
             rx="24.999001"
             ry="15.399"
             transform="translate(408.01,212.119)"
             id="ellipse3880"
             style="fill:#f97c64" />
          <ellipse
             class="f"
             cx="18.157"
             cy="6.7249999"
             rx="18.157"
             ry="6.7249999"
             transform="translate(414.852,214.653)"
             id="ellipse3882"
             style="fill:#ff9d73" />
          <path
             class="b"
             d="m 249.355,221.476 c -5.709,-4.023 -28.938,-1.3 -41.006,1.687 -7.949,1.966 -9.535,8.042 -9.694,11.959 a 3.593,3.593 0 0 0 4.772,3.516 28.689,28.689 0 0 0 3.754,-1.721 c 7.527,-4.023 36.855,-3.5 42.174,-4.541 5.319,-1.041 5.709,-6.876 0,-10.9 z"
             transform="translate(156.663,-73.851)"
             id="path3884"
             inkscape:connector-curvature="0"
             style="fill:#f7ebe2" />
          <path
             class="b"
             d="m 259.006,221.476 c 5.709,-4.023 28.936,-1.3 41.006,1.687 7.949,1.966 9.535,8.042 9.693,11.959 a 3.592,3.592 0 0 1 -4.772,3.516 28.789,28.789 0 0 1 -3.753,-1.721 c -7.527,-4.023 -36.855,-3.5 -42.174,-4.541 -5.319,-1.041 -5.711,-6.876 0,-10.9 z"
             transform="translate(200.996,-73.851)"
             id="path3886"
             inkscape:connector-curvature="0"
             style="fill:#f7ebe2" />
          <circle
             class="i"
             cx="35.988998"
             cy="35.988998"
             r="35.988998"
             transform="translate(583.3,130.696)"
             id="circle3890"
             style="fill:#ebd6c5" />
          <circle
             class="b"
             cx="26.127001"
             cy="26.127001"
             r="26.127001"
             transform="translate(594.342,130.696)"
             id="circle3892"
             style="fill:#f7ebe2" />
          <path
             class="i"
             d="m 162.125,337.356 h 291.887 c 1.286,-2.288 2.493,-4.574 3.652,-6.856 H 159.383 c 0.864,2.311 1.769,4.6 2.742,6.856 z"
             transform="translate(125.694,13.724)"
             id="path3896"
             inkscape:connector-curvature="0"
             style="fill:#ebd6c5" />
          <path
             class="i"
             d="m 486.905,376.267 c 6.251,-16.078 -4.445,-56.333 -38.52,-59.275 -34.075,-2.942 -58.274,2.69 -66.669,9.122 -8.395,6.432 -11.853,45.948 -7.408,56.038 4.445,10.09 42.471,31.108 63.214,26.9 20.743,-4.208 44.465,-20.132 49.383,-32.785 z"
             transform="translate(293.655,2.439)"
             id="path3898"
             inkscape:connector-curvature="0"
             style="fill:#ebd6c5" />
          <path
             class="i"
             d="m 48.523,377.962 c -6.249,-16.076 4.445,-56.331 38.522,-59.273 34.077,-2.942 58.274,2.69 66.669,9.122 8.395,6.432 11.851,45.948 7.407,56.038 -4.444,10.09 -42.471,31.108 -63.212,26.9 -20.741,-4.208 -44.465,-20.132 -49.386,-32.787 z"
             transform="translate(36.934,3.777)"
             id="path3900"
             inkscape:connector-curvature="0"
             style="fill:#ebd6c5" />
          <path
             class="d"
             d="m 48.523,372.267 c -6.249,-16.078 4.445,-56.333 38.522,-59.275 34.077,-2.942 58.274,2.69 66.669,9.122 8.395,6.432 11.851,45.948 7.407,56.038 -4.444,10.09 -42.471,31.108 -63.212,26.9 -20.741,-4.208 -44.465,-20.133 -49.386,-32.785 z"
             transform="translate(36.934,-0.716)"
             id="path3902"
             inkscape:connector-curvature="0"
             style="fill:#a4201e" />
          <path
             class="c"
             d="m 153.71,322.114 c -8.4,-6.432 -32.594,-12.064 -66.669,-9.122 -27.972,2.417 -40.178,29.963 -40.2,48.653 7.51,11.891 28.718,25.3 47.488,29.1 20.741,4.2 58.767,-16.815 63.212,-26.9 2.581,-5.858 2.493,-21.632 0.327,-35.095 -1.204,-3.091 -2.595,-5.438 -4.158,-6.636 z"
             transform="translate(36.939,-0.716)"
             id="path3904"
             inkscape:connector-curvature="0"
             style="fill:#c72727" />
          <path
             class="d"
             d="m 486.905,372.267 c 6.251,-16.078 -4.445,-56.333 -38.52,-59.275 -34.075,-2.942 -58.274,2.69 -66.669,9.122 -8.395,6.432 -11.853,45.948 -7.408,56.038 4.445,10.09 42.471,31.108 63.214,26.9 20.743,-4.208 44.465,-20.133 49.383,-32.785 z"
             transform="translate(293.655,-0.716)"
             id="path3906"
             inkscape:connector-curvature="0"
             style="fill:#a4201e" />
          <path
             class="c"
             d="m 380.137,322.114 c 8.4,-6.432 32.594,-12.064 66.669,-9.122 27.971,2.417 40.178,29.963 40.2,48.653 -7.51,11.891 -28.72,25.3 -47.488,29.1 -20.743,4.2 -58.769,-16.815 -63.214,-26.9 -2.579,-5.858 -2.492,-21.632 -0.326,-35.095 1.204,-3.091 2.596,-5.438 4.159,-6.636 z"
             id="path3908"
             transform="translate(295.234,-0.716)"
             inkscape:connector-curvature="0"
             style="fill:#c72727" />
        </g>
      </g>
    </g>
  </g>
</svg>
